<?xml version="1.0" encoding="UTF-8" standalone="no"?>
<!-- Created with Inkscape (http://www.inkscape.org/) -->
<svg xmlns:svg="http://www.w3.org/2000/svg" xmlns="http://www.w3.org/2000/svg" version="1.0" width="500" height="50" id="svg2">
  <defs id="defs4"/>
  <g transform="translate(104.28573,-324.50504)" id="layer1">
    <g id="g2458">
      <path d="M 281.09523,354.43158 L 281.59057,354.07141 L 281.59057,350.04727 L 281.09523,350.04727 L 281.09523,354.43158 z M 281.59057,345.24232 L 281.09523,345.6176 L 281.09523,348.0352 L 281.59057,348.0352 L 281.59057,345.24232 z M 282.43141,344.62646 L 282.92721,344.25117 L 282.92721,353.08027 L 282.43141,353.44044 L 282.43141,344.62646 z M 283.40743,343.87589 L 283.90323,343.5006 L 283.90323,352.32924 L 283.40743,352.68986 L 283.40743,343.87589 z M 284.4137,343.09507 L 284.90904,342.71978 L 284.90904,351.54888 L 284.4137,351.90905 L 284.4137,343.09507 z M 285.86994,342.67488 L 285.3746,342.3894 L 285.3746,351.2185 L 285.86994,351.48839 L 285.86994,342.67488 z M 290.79495,345.6176 L 290.28449,345.31746 L 290.28449,348.0352 L 290.79495,348.0352 L 290.79495,345.6176 z M 290.79495,354.43158 L 290.28449,354.1461 L 290.28449,350.04727 L 290.79495,350.04727 L 290.79495,354.43158 z M 288.81313,344.44638 L 288.31733,344.14624 L 288.31733,352.97534 L 288.81313,353.26035 L 288.81313,344.44638 z M 286.86108,343.26049 L 286.36574,342.95989 L 286.36574,351.78899 L 286.86108,352.07401 L 286.86108,343.26049 z " style="font-size:15.01514912px;font-style:normal;font-weight:normal;text-align:center;text-anchor:middle;fill:#000000;fill-opacity:1;stroke:none;stroke-width:1px;stroke-linecap:butt;stroke-linejoin:miter;stroke-opacity:1;font-family:Arial" id="text2255"/>
      <path d="M 258.03468,343.98082 L 258.53002,343.98082 L 258.53002,349.29624 L 258.03468,349.29624 L 258.03468,343.98082 z M 259.0107,343.98082 L 259.50604,343.98082 L 259.50604,349.29624 L 259.0107,349.29624 L 259.0107,343.98082 z M 260.00184,343.98082 L 260.48206,343.98082 L 260.48206,349.29624 L 260.00184,349.29624 L 260.00184,343.98082 z M 261.96855,343.98082 L 262.46435,343.98082 L 262.46435,349.29624 L 261.96855,349.29624 L 261.96855,343.98082 z M 262.94457,343.98082 L 263.43991,343.98082 L 263.43991,349.29624 L 262.94457,349.29624 L 262.94457,343.98082 z M 263.93571,343.98082 L 264.41593,343.98082 L 264.41593,349.29624 L 263.93571,349.29624 L 263.93571,343.98082 z M 265.88776,343.98082 L 266.3831,343.98082 L 266.3831,349.29624 L 265.88776,349.29624 L 265.88776,343.98082 z M 258.03468,351.63869 L 258.53002,351.63869 L 258.53002,354.08608 L 258.03468,354.08608 L 258.03468,351.63869 z M 259.0107,351.63869 L 259.50604,351.63869 L 259.50604,354.08608 L 259.0107,354.08608 L 259.0107,351.63869 z M 260.00184,351.63869 L 260.48206,351.63869 L 260.48206,354.08608 L 260.00184,354.08608 L 260.00184,351.63869 z M 261.96855,351.63869 L 262.46435,351.63869 L 262.46435,354.08608 L 261.96855,354.08608 L 261.96855,351.63869 z M 262.94457,351.63869 L 263.43991,351.63869 L 263.43991,354.08608 L 262.94457,354.08608 L 262.94457,351.63869 z M 263.93571,351.63869 L 264.41593,351.63869 L 264.41593,354.08608 L 263.93571,354.08608 L 263.93571,351.63869 z M 265.88776,351.63869 L 266.3831,351.63869 L 266.3831,354.08608 L 265.88776,354.08608 L 265.88776,351.63869 z " style="font-size:15.01514912px;font-style:normal;font-weight:normal;text-align:center;text-anchor:middle;fill:#000000;fill-opacity:1;stroke:none;stroke-width:1px;stroke-linecap:butt;stroke-linejoin:miter;stroke-opacity:1;font-family:Arial" id="text2259"/>
      <path d="M 234.97413,347.16412 L 235.46947,347.16412 L 235.46947,354.08608 L 234.97413,354.08608 L 234.97413,347.16412 z M 235.95015,347.16412 L 236.4455,347.16412 L 236.4455,354.08608 L 235.95015,354.08608 L 235.95015,347.16412 z M 237.91732,347.16412 L 238.41266,347.16412 L 238.41266,354.08608 L 237.91732,354.08608 L 237.91732,347.16412 z M 238.908,347.16412 L 239.4038,347.16412 L 239.4038,354.08608 L 238.908,354.08608 L 238.908,347.16412 z M 239.88402,343.98082 L 240.37937,343.98082 L 240.37937,354.08608 L 239.88402,354.08608 L 239.88402,343.98082 z M 240.87517,343.98082 L 241.35539,343.98082 L 241.35539,354.08608 L 240.87517,354.08608 L 240.87517,343.98082 z M 242.82721,343.98082 L 243.32255,343.98082 L 243.32255,354.08608 L 242.82721,354.08608 L 242.82721,343.98082 z " style="font-size:15.01514912px;font-style:normal;font-weight:normal;text-align:center;text-anchor:middle;fill:#000000;fill-opacity:1;stroke:none;stroke-width:1px;stroke-linecap:butt;stroke-linejoin:miter;stroke-opacity:1;font-family:Arial" id="text2263"/>
      <path d="M 211.91359,347.11921 L 212.40893,346.83373 L 212.40893,354.16123 L 211.91359,354.43158 L 211.91359,347.11921 z M 215.84746,344.91193 L 216.34326,344.6567 L 215.84746,344.91193 z M 216.82348,344.35656 L 217.31882,344.07109 L 216.82348,344.35656 z M 219.76666,342.65975 L 220.262,342.3894 L 220.262,349.65686 L 219.76666,349.92722 L 219.76666,342.65975 z M 213.86563,346.05292 L 214.36097,345.7679 L 214.36097,353.09539 L 213.86563,353.36529 L 213.86563,346.05292 z M 214.84165,345.49755 L 215.35211,345.21207 L 215.35211,352.53956 L 214.84165,352.80992 L 214.84165,345.49755 z M 215.84746,344.94218 L 216.34326,344.6567 L 216.34326,351.98419 L 215.84746,352.25455 L 215.84746,344.94218 z M 216.82348,344.35656 L 217.31882,344.07109 L 217.31882,351.39858 L 216.82348,351.66894 L 216.82348,344.35656 z M 217.7995,343.77095 L 218.29484,343.48548 L 218.29484,350.81297 L 217.7995,351.08332 L 217.7995,343.77095 z " style="font-size:15.01514912px;font-style:normal;font-weight:normal;text-align:center;text-anchor:middle;fill:#000000;fill-opacity:1;stroke:none;stroke-width:1px;stroke-linecap:butt;stroke-linejoin:miter;stroke-opacity:1;font-family:Arial" id="text2267"/>
      <path d="M 190.3244,354.13144 L 190.3244,343.01992 L 189.82906,343.47036 L 189.82906,353.68101 L 190.3244,354.13144 z M 192.27644,354.4467 L 192.27644,351.23316 L 191.79622,350.78273 L 191.79622,354.4467 L 192.27644,354.4467 z M 193.26759,354.43158 L 193.26759,351.42837 L 192.77179,351.42837 L 192.77179,354.43158 L 193.26759,354.43158 z M 194.24361,346.09828 L 194.24361,342.43431 L 193.74781,342.43431 L 193.74781,345.64785 L 194.24361,346.09828 z M 195.21963,353.98114 L 195.21963,342.87008 L 194.73895,342.41964 L 194.73895,354.43158 L 195.21963,353.98114 z M 190.3244,354.13144 L 190.3244,343.01992 L 189.82906,343.47036 L 189.82906,353.68101 L 190.3244,354.13144 z M 192.27644,345.64785 L 192.27644,342.43431 L 191.79622,342.43431 L 191.79622,346.09828 L 192.27644,345.64785 z M 193.26759,345.45264 L 193.26759,342.44943 L 192.77179,342.44943 L 192.77179,345.45264 L 193.26759,345.45264 z M 194.24361,354.4467 L 194.24361,350.78273 L 193.74781,351.23316 L 193.74781,354.4467 L 194.24361,354.4467 z M 195.21963,353.98114 L 195.21963,342.87008 L 194.73895,342.41964 L 194.73895,354.43158 L 195.21963,353.98114 z M 189.34838,353.08027 L 189.34838,343.92079 L 188.85304,344.44638 L 188.85304,352.55469 L 189.34838,353.08027 z M 196.70612,352.92997 L 196.70612,343.92079 L 197.18634,344.44638 L 197.18634,352.40439 L 196.70612,352.92997 z " style="font-size:15.01514912px;font-style:normal;font-weight:normal;text-align:center;text-anchor:middle;fill:#000000;fill-opacity:1;stroke:none;stroke-width:1px;stroke-linecap:butt;stroke-linejoin:miter;stroke-opacity:1;font-family:Arial" id="text2271"/>
      <path d="M 166.28783,349.05613 L 166.28783,343.05016 L 165.79249,344.10133 L 165.79249,348.00496 L 166.28783,349.05613 z M 167.26386,349.62662 L 167.26386,342.41964 L 166.76851,342.71978 L 166.76851,349.32648 L 167.26386,349.62662 z M 169.2159,344.82166 L 169.2159,342.41964 L 168.73568,342.41964 L 168.73568,344.82166 L 169.2159,344.82166 z M 170.20704,344.82166 L 170.20704,342.41964 L 169.71124,342.41964 L 169.71124,344.82166 L 170.20704,344.82166 z M 172.15908,344.82166 L 172.15908,342.41964 L 171.6784,342.41964 L 171.6784,344.82166 L 172.15908,344.82166 z M 173.14977,354.13144 L 173.14977,342.71978 L 172.65443,342.41964 L 172.65443,354.43158 L 173.14977,354.13144 z M 174.12579,352.92997 L 174.12579,343.92079 L 173.63045,343.01992 L 173.63045,353.83085 L 174.12579,352.92997 z M 169.2159,354.41646 L 169.2159,351.99932 L 168.73568,351.99932 L 168.73568,354.41646 L 169.2159,354.41646 z M 170.20704,354.41646 L 170.20704,351.99932 L 169.71124,351.99932 L 169.71124,354.41646 L 170.20704,354.41646 z M 172.15908,354.41646 L 172.15908,351.99932 L 171.6784,351.99932 L 171.6784,354.41646 L 172.15908,354.41646 z M 169.2159,349.62662 L 169.2159,347.22414 L 168.73568,347.22414 L 168.73568,349.62662 L 169.2159,349.62662 z M 170.20704,349.62662 L 170.20704,347.22414 L 169.71124,347.22414 L 169.71124,349.62662 L 170.20704,349.62662 z M 172.15908,349.62662 L 172.15908,347.22414 L 171.6784,347.22414 L 171.6784,349.62662 L 172.15908,349.62662 z M 166.28783,353.83085 L 166.28783,351.42837 L 165.79249,351.42837 L 165.79249,352.92997 L 166.28783,353.83085 z M 167.26386,354.43158 L 167.26386,351.42837 L 166.76851,351.42837 L 166.76851,354.13144 L 167.26386,354.43158 z " style="font-size:15.01514912px;font-style:normal;font-weight:normal;text-align:center;text-anchor:middle;fill:#000000;fill-opacity:1;stroke:none;stroke-width:1px;stroke-linecap:butt;stroke-linejoin:miter;stroke-opacity:1;font-family:Arial" id="text2275"/>
      <path d="M 143.22729,353.86109 L 143.22729,349.65686 L 142.73194,349.65686 L 142.73194,352.80992 L 143.22729,353.86109 z M 144.20331,354.43158 L 144.20331,349.02635 L 143.70797,349.02635 L 143.70797,354.28128 L 144.20331,354.43158 z M 147.14649,344.82166 L 147.14649,342.41964 L 146.65069,342.41964 L 146.65069,344.82166 L 147.14649,344.82166 z M 148.12252,344.82166 L 148.12252,342.41964 L 147.62671,342.41964 L 147.62671,344.82166 L 148.12252,344.82166 z M 150.08922,354.28128 L 150.08922,349.02635 L 149.59388,349.02635 L 149.59388,354.43158 L 150.08922,354.28128 z M 151.06524,352.80992 L 151.06524,349.65686 L 150.5699,349.65686 L 150.5699,353.86109 L 151.06524,352.80992 z M 146.15535,344.82166 L 146.15535,342.41964 L 145.67513,342.41964 L 145.67513,344.82166 L 146.15535,344.82166 z M 146.15535,354.43158 L 146.15535,352.01398 L 145.67513,352.01398 L 145.67513,354.43158 L 146.15535,354.43158 z M 147.14649,354.43158 L 147.14649,352.01398 L 146.65069,352.01398 L 146.65069,354.43158 L 147.14649,354.43158 z M 148.12252,354.43158 L 148.12252,352.01398 L 147.62671,352.01398 L 147.62671,354.43158 L 148.12252,354.43158 z M 146.15535,349.62662 L 146.15535,347.22414 L 145.67513,347.22414 L 145.67513,349.62662 L 146.15535,349.62662 z M 147.14649,349.62662 L 147.14649,347.22414 L 146.65069,347.22414 L 146.65069,349.62662 L 147.14649,349.62662 z M 148.12252,349.62662 L 148.12252,347.22414 L 147.62671,347.22414 L 147.62671,349.62662 L 148.12252,349.62662 z M 146.15535,349.62662 L 146.15535,347.22414 L 145.67513,347.22414 L 145.67513,349.62662 L 146.15535,349.62662 z M 147.14649,349.62662 L 147.14649,347.22414 L 146.65069,347.22414 L 146.65069,349.62662 L 147.14649,349.62662 z M 148.12252,349.62662 L 148.12252,347.22414 L 147.62671,347.22414 L 147.62671,349.62662 L 148.12252,349.62662 z M 146.15535,349.62662 L 146.15535,347.22414 L 145.67513,347.22414 L 145.67513,349.62662 L 146.15535,349.62662 z M 147.14649,349.62662 L 147.14649,347.22414 L 146.65069,347.22414 L 146.65069,349.62662 L 147.14649,349.62662 z M 148.12252,349.62662 L 148.12252,347.22414 L 147.62671,347.22414 L 147.62671,349.62662 L 148.12252,349.62662 z M 143.22729,347.20948 L 143.22729,343.00526 L 142.73194,344.05597 L 142.73194,347.20948 L 143.22729,347.20948 z M 144.20331,347.79509 L 144.20331,342.3894 L 143.70797,342.5397 L 143.70797,347.79509 L 144.20331,347.79509 z M 150.08922,347.79509 L 150.08922,342.5397 L 149.59388,342.3894 L 149.59388,347.79509 L 150.08922,347.79509 z M 151.06524,347.22414 L 151.06524,344.07109 L 150.5699,343.01992 L 150.5699,347.22414 L 151.06524,347.22414 z " style="font-size:15.01514912px;font-style:normal;font-weight:normal;text-align:center;text-anchor:middle;fill:#000000;fill-opacity:1;stroke:none;stroke-width:1px;stroke-linecap:butt;stroke-linejoin:miter;stroke-opacity:1;font-family:Arial" id="text2279"/>
      <path d="M 120.16675,346.62387 L 120.16675,342.41964 L 119.67141,342.41964 L 119.67141,346.62387 L 120.16675,346.62387 z M 122.11879,345.13738 L 122.11879,342.43431 L 121.63857,342.43431 L 121.63857,345.13738 L 122.11879,345.13738 z M 124.08595,345.13738 L 124.08595,342.43431 L 123.59015,342.43431 L 123.59015,345.13738 L 124.08595,345.13738 z M 125.06198,345.13738 L 125.06198,342.43431 L 124.56618,342.43431 L 124.56618,345.13738 L 125.06198,345.13738 z M 126.038,350.00191 L 126.038,342.41964 L 125.55732,342.41964 L 125.55732,350.54262 L 126.038,350.00191 z M 127.02868,348.98098 L 127.02868,342.44943 L 126.53334,342.44943 L 126.53334,349.50657 L 127.02868,348.98098 z M 128.0047,347.91515 L 128.0047,342.43431 L 127.50936,342.43431 L 127.50936,348.48564 L 128.0047,347.91515 z M 120.16675,354.43158 L 120.16675,351.42837 L 119.67141,351.42837 L 119.67141,354.43158 L 120.16675,354.43158 z M 122.11879,354.43158 L 122.11879,349.98725 L 121.63857,350.54262 L 121.63857,354.43158 L 122.11879,354.43158 z M 124.08595,352.20918 L 124.08595,347.71994 L 123.59015,348.27531 L 123.59015,352.73477 L 124.08595,352.20918 z M 125.06198,351.08332 L 125.06198,346.51848 L 124.56618,347.0743 L 124.56618,351.60891 L 125.06198,351.08332 z " style="font-size:15.01514912px;font-style:normal;font-weight:normal;text-align:center;text-anchor:middle;fill:#000000;fill-opacity:1;stroke:none;stroke-width:1px;stroke-linecap:butt;stroke-linejoin:miter;stroke-opacity:1;font-family:Arial" id="text2283"/>
      <path d="M 97.106201,353.68101 L 97.106201,343.17022 L 96.610859,344.07109 L 96.610859,352.78013 L 97.106201,353.68101 z M 98.082222,354.43158 L 98.082222,342.41964 L 97.58688,342.71978 L 97.58688,354.13144 L 98.082222,354.43158 z M 99.058244,344.82166 L 99.058244,342.41964 L 98.578023,342.41964 L 98.578023,344.82166 L 99.058244,344.82166 z M 101.02541,344.82166 L 101.02541,342.41964 L 100.52961,342.41964 L 100.52961,344.82166 L 101.02541,344.82166 z M 102.00143,344.82166 L 102.00143,342.41964 L 101.50563,342.41964 L 101.50563,344.82166 L 102.00143,344.82166 z M 103.96813,354.28128 L 103.96813,347.37444 L 103.47279,347.22414 L 103.47279,354.43158 L 103.96813,354.28128 z M 104.94416,352.92997 L 104.94416,348.72575 L 104.44881,347.82488 L 104.44881,353.83085 L 104.94416,352.92997 z M 99.058244,349.62662 L 99.058244,347.22414 L 98.578023,347.22414 L 98.578023,349.62662 L 99.058244,349.62662 z M 101.02541,349.62662 L 101.02541,347.22414 L 100.52961,347.22414 L 100.52961,349.62662 L 101.02541,349.62662 z M 102.00143,349.62662 L 102.00143,347.22414 L 101.50563,347.22414 L 101.50563,349.62662 L 102.00143,349.62662 z M 99.058244,354.41646 L 99.058244,351.99932 L 98.578023,351.99932 L 98.578023,354.40134 L 99.058244,354.41646 z M 101.02541,354.41646 L 101.02541,351.99932 L 100.52961,351.99932 L 100.52961,354.41646 L 101.02541,354.41646 z M 102.00143,354.41646 L 102.00143,351.99932 L 101.50563,351.99932 L 101.50563,354.41646 L 102.00143,354.41646 z M 103.96813,345.4224 L 103.96813,342.56948 L 103.47279,342.41964 L 103.47279,345.4224 L 103.96813,345.4224 z M 104.94416,345.4224 L 104.94416,343.92079 L 104.44881,343.01992 L 104.44881,345.4224 L 104.94416,345.4224 z " style="font-size:15.01514912px;font-style:normal;font-weight:normal;text-align:center;text-anchor:middle;fill:#000000;fill-opacity:1;stroke:none;stroke-width:1px;stroke-linecap:butt;stroke-linejoin:miter;stroke-opacity:1;font-family:Arial" id="text2287"/>
      <path d="M 74.045654,349.32648 L 74.045654,342.41964 L 73.550312,342.41964 L 73.550312,349.32648 L 74.045654,349.32648 z M 75.021675,349.32648 L 75.021675,342.41964 L 74.526333,342.41964 L 74.526333,349.32648 L 75.021675,349.32648 z M 78.940882,349.32648 L 78.940882,346.92401 L 78.445082,346.92401 L 78.445082,349.32648 L 78.940882,349.32648 z M 80.907588,354.13144 L 80.907588,347.22414 L 80.412246,346.92401 L 80.412246,354.43158 L 80.907588,354.13144 z M 81.883609,352.86995 L 81.883609,348.78578 L 81.388267,347.73461 L 81.388267,353.92112 L 81.883609,352.86995 z M 74.045654,354.4467 L 74.045654,351.74408 L 73.550312,351.74408 L 73.550312,354.4467 L 74.045654,354.4467 z M 75.021675,354.4467 L 75.021675,351.74408 L 74.526333,351.74408 L 74.526333,354.4467 L 75.021675,354.4467 z M 80.907588,345.15205 L 80.907588,342.44943 L 80.412246,342.44943 L 80.412246,345.15205 L 80.907588,345.15205 z M 81.883609,345.15205 L 81.883609,342.44943 L 81.388267,342.44943 L 81.388267,345.15205 L 81.883609,345.15205 z M 78.940882,345.15205 L 78.940882,342.44943 L 78.445082,342.44943 L 78.445082,345.15205 L 78.940882,345.15205 z M 78.940882,354.4467 L 78.940882,351.74408 L 78.445082,351.74408 L 78.445082,354.4467 L 78.940882,354.4467 z M 75.997697,349.32648 L 75.997697,346.92401 L 75.517476,346.92401 L 75.517476,349.32648 L 75.997697,349.32648 z M 76.973718,349.32648 L 76.973718,346.92401 L 76.493497,346.92401 L 76.493497,349.32648 L 76.973718,349.32648 z M 75.997697,345.15205 L 75.997697,342.44943 L 75.517476,342.44943 L 75.517476,345.15205 L 75.997697,345.15205 z M 76.973718,345.15205 L 76.973718,342.44943 L 76.493497,342.44943 L 76.493497,345.15205 L 76.973718,345.15205 z M 75.997697,354.4467 L 75.997697,351.74408 L 75.517476,351.74408 L 75.517476,354.4467 L 75.997697,354.4467 z M 76.973718,354.4467 L 76.973718,351.74408 L 76.493497,351.74408 L 76.493497,354.4467 L 76.973718,354.4467 z " style="font-size:15.01514912px;font-style:normal;font-weight:normal;text-align:center;text-anchor:middle;fill:#000000;fill-opacity:1;stroke:none;stroke-width:1px;stroke-linecap:butt;stroke-linejoin:miter;stroke-opacity:1;font-family:Arial" id="text2291"/>
      <path d="M 50.985107,352.62984 L 50.985107,346.02313 L 50.489765,346.32327 L 50.489765,352.62984 L 50.985107,352.62984 z M 52.93715,352.62984 L 52.93715,344.82166 L 52.456929,345.13738 L 52.456929,352.62984 L 52.93715,352.62984 z M 56.856357,354.43158 L 56.856357,349.62662 L 56.375678,349.62662 L 56.375678,354.43158 L 56.856357,354.43158 z M 57.847041,346.05292 L 57.847041,342.44943 L 57.351699,342.44943 L 57.351699,346.05292 L 57.847041,346.05292 z M 58.823063,346.05292 L 58.823063,342.44943 L 58.32772,342.44943 L 58.32772,346.05292 L 58.823063,346.05292 z M 53.913171,352.62984 L 53.913171,350.22736 L 53.43295,350.22736 L 53.43295,352.62984 L 53.913171,352.62984 z M 54.904314,352.62984 L 54.904314,350.22736 L 54.408513,350.22736 L 54.408513,352.62984 L 54.904314,352.62984 z M 57.847041,354.43158 L 57.847041,349.62662 L 57.351699,349.62662 L 57.351699,354.43158 L 57.847041,354.43158 z M 58.823063,354.43158 L 58.823063,349.62662 L 58.32772,349.62662 L 58.32772,354.43158 L 58.823063,354.43158 z M 53.913171,347.77997 L 53.913171,344.17602 L 53.43295,344.55177 L 53.43295,348.15526 L 53.913171,347.77997 z M 54.904314,347.16412 L 54.904314,343.56063 L 54.408513,343.93591 L 54.408513,347.5394 L 54.904314,347.16412 z M 56.856357,346.02313 L 56.856357,342.41964 L 56.375678,342.79493 L 56.375678,346.39842 L 56.856357,346.02313 z " style="font-size:15.01514912px;font-style:normal;font-weight:normal;text-align:center;text-anchor:middle;fill:#000000;fill-opacity:1;stroke:none;stroke-width:1px;stroke-linecap:butt;stroke-linejoin:miter;stroke-opacity:1;font-family:Arial" id="text2295"/>
      <path d="M 27.92456,353.66588 L 27.92456,350.45235 L 27.429218,350.45235 L 27.429218,352.76501 L 27.92456,353.66588 z M 29.876603,354.41646 L 29.876603,350.45235 L 29.396382,350.45235 L 29.396382,354.41646 L 29.876603,354.41646 z M 30.852624,354.43158 L 30.852624,351.12823 L 30.372403,351.12823 L 30.372403,354.43158 L 30.852624,354.43158 z M 32.819788,345.43752 L 32.819788,342.43431 L 32.323988,342.43431 L 32.323988,345.43752 L 32.819788,345.43752 z M 33.79581,345.43752 L 33.79581,342.43431 L 33.315131,342.43431 L 33.315131,345.43752 L 33.79581,345.43752 z M 34.786494,354.28128 L 34.786494,342.56948 L 34.291152,342.41964 L 34.291152,354.43158 L 34.786494,354.28128 z M 35.762516,352.76501 L 35.762516,349.01122 L 35.267173,349.01122 L 35.267173,353.81618 L 35.762516,352.76501 z M 32.819788,354.41646 L 32.819788,351.4137 L 32.323988,351.4137 L 32.323988,354.41646 L 32.819788,354.41646 z M 33.79581,354.41646 L 33.79581,351.4137 L 33.315131,351.4137 L 33.315131,354.41646 L 33.79581,354.41646 z M 32.819788,349.62662 L 32.819788,347.22414 L 32.323988,347.22414 L 32.323988,349.62662 L 32.819788,349.62662 z M 33.79581,349.62662 L 33.79581,347.22414 L 33.315131,347.22414 L 33.315131,349.62662 L 33.79581,349.62662 z M 27.92456,346.3833 L 27.92456,343.17022 L 27.429218,344.07109 L 27.429218,346.3833 L 27.92456,346.3833 z M 29.876603,346.39842 L 29.876603,342.43431 L 29.396382,342.43431 L 29.396382,346.39842 L 29.876603,346.39842 z M 30.852624,345.73766 L 30.852624,342.43431 L 30.372403,342.43431 L 30.372403,345.73766 L 30.852624,345.73766 z M 35.762516,347.86978 L 35.762516,344.116 L 35.267173,343.06528 L 35.267173,347.86978 L 35.762516,347.86978 z " style="font-size:15.01514912px;font-style:normal;font-weight:normal;text-align:center;text-anchor:middle;fill:#000000;fill-opacity:1;stroke:none;stroke-width:1px;stroke-linecap:butt;stroke-linejoin:miter;stroke-opacity:1;font-family:Arial" id="text2299"/>
      <path d="M 4.8640133,346.65365 L 4.8640133,343.20046 L 4.368671,344.25117 L 4.368671,346.65365 L 4.8640133,346.65365 z M 5.8400347,346.65365 L 5.8400347,342.44943 L 5.3446924,342.74957 L 5.3446924,346.65365 L 5.8400347,346.65365 z M 7.7920774,354.43158 L 7.7920774,348.71063 L 7.3118566,348.93608 L 7.3118566,354.43158 L 7.7920774,354.43158 z M 9.7592415,350.15221 L 9.7592415,347.70482 L 9.263441,347.92981 L 9.263441,350.45235 L 9.7592415,350.15221 z M 10.735263,349.55147 L 10.735263,347.14945 L 10.254584,347.37444 L 10.254584,349.85207 L 10.735263,349.55147 z M 11.725947,354.43158 L 11.725947,352.0291 L 11.230605,352.0291 L 11.230605,354.43158 L 11.725947,354.43158 z M 12.701969,354.43158 L 12.701969,352.0291 L 12.206627,352.0291 L 12.206627,354.43158 L 12.701969,354.43158 z M 4.8640133,354.41646 L 4.8640133,350.27226 L 4.368671,350.49771 L 4.368671,354.41646 L 4.8640133,354.41646 z M 5.8400347,354.41646 L 5.8400347,349.77692 L 5.3446924,350.00191 L 5.3446924,354.41646 L 5.8400347,354.41646 z M 7.7920774,344.85191 L 7.7920774,342.43431 L 7.3118566,342.43431 L 7.3118566,344.85191 L 7.7920774,344.85191 z M 11.725947,348.9512 L 11.725947,342.71978 L 11.230605,342.41964 L 11.230605,349.25133 L 11.725947,348.9512 z M 12.701969,348.35046 L 12.701969,344.07109 L 12.206627,343.17022 L 12.206627,348.6506 L 12.701969,348.35046 z M 9.7592415,344.82166 L 9.7592415,342.41964 L 9.263441,342.41964 L 9.263441,344.82166 L 9.7592415,344.82166 z M 10.735263,344.82166 L 10.735263,342.41964 L 10.254584,342.41964 L 10.254584,344.82166 L 10.735263,344.82166 z M 9.7592415,354.43158 L 9.7592415,352.0291 L 9.263441,352.0291 L 9.263441,354.43158 L 9.7592415,354.43158 z M 10.735263,354.43158 L 10.735263,352.0291 L 10.254584,352.0291 L 10.254584,354.43158 L 10.735263,354.43158 z " style="font-size:15.01514912px;font-style:normal;font-weight:normal;text-align:center;text-anchor:middle;fill:#000000;fill-opacity:1;stroke:none;stroke-width:1px;stroke-linecap:butt;stroke-linejoin:miter;stroke-opacity:1;font-family:Arial" id="text2303"/>
      <path d="M -18.196534,347.61455 L -18.196534,344.6118 L -18.691876,344.91193 L -18.691876,347.91515 L -18.196534,347.61455 z M -16.244491,346.63853 L -16.244491,343.63578 L -16.724712,343.93591 L -16.724712,346.93913 L -16.244491,346.63853 z M -15.268469,346.1134 L -15.268469,343.11019 L -15.74869,343.41033 L -15.74869,346.41354 L -15.268469,346.1134 z M -14.277327,354.43158 L -14.277327,342.64463 L -14.773127,342.94477 L -14.773127,354.43158 L -14.277327,354.43158 z M -13.301305,354.43158 L -13.301305,342.41964 L -13.797106,342.41964 L -13.797106,354.43158 L -13.301305,354.43158 z M -11.334599,354.43158 L -11.334599,349.02635 L -11.829942,349.02635 L -11.829942,354.43158 L -11.334599,354.43158 z M -10.358578,354.43158 L -10.358578,349.02635 L -10.85392,349.02635 L -10.85392,354.43158 L -10.358578,354.43158 z M -18.196534,354.43158 L -18.196534,350.46747 L -18.691876,350.46747 L -18.691876,354.43158 L -18.196534,354.43158 z M -16.244491,354.43158 L -16.244491,350.46747 L -16.724712,350.46747 L -16.724712,354.43158 L -16.244491,354.43158 z M -15.268469,354.43158 L -15.268469,350.46747 L -15.74869,350.46747 L -15.74869,354.43158 L -15.268469,354.43158 z " style="font-size:15.01514912px;font-style:normal;font-weight:normal;text-align:center;text-anchor:middle;fill:#000000;fill-opacity:1;stroke:none;stroke-width:1px;stroke-linecap:butt;stroke-linejoin:miter;stroke-opacity:1;font-family:Arial" id="text2307"/>
      <path d="M 304.1482,343.98082 L 304.64355,343.98082 L 304.64355,348.0352 L 304.1482,348.0352 L 304.1482,343.98082 z M 305.12423,343.98082 L 305.61957,343.98082 L 305.61957,348.0352 L 305.12423,348.0352 L 305.12423,343.98082 z M 306.11537,343.98082 L 306.59559,343.98082 L 306.59559,348.0352 L 306.11537,348.0352 L 306.11537,343.98082 z M 307.09139,343.98082 L 307.58673,343.98082 L 307.58673,348.0352 L 307.09139,348.0352 L 307.09139,343.98082 z M 309.0581,345.49755 L 309.55344,345.49755 L 309.55344,352.56981 L 309.0581,352.56981 L 309.0581,345.49755 z M 310.04924,345.49755 L 310.52946,345.49755 L 310.52946,352.56981 L 310.04924,352.56981 L 310.04924,345.49755 z M 312.00128,345.49755 L 312.49662,345.49755 L 312.49662,352.56981 L 312.00128,352.56981 L 312.00128,345.49755 z M 304.1482,350.04727 L 304.64355,350.04727 L 304.64355,354.08608 L 304.1482,354.08608 L 304.1482,350.04727 z M 305.12423,350.04727 L 305.61957,350.04727 L 305.61957,354.08608 L 305.12423,354.08608 L 305.12423,350.04727 z M 306.11537,350.04727 L 306.59559,350.04727 L 306.59559,354.08608 L 306.11537,354.08608 L 306.11537,350.04727 z M 307.09139,350.04727 L 307.58673,350.04727 L 307.58673,354.08608 L 307.09139,354.08608 L 307.09139,350.04727 z " style="font-size:15.01514912px;font-style:normal;font-weight:normal;text-align:center;text-anchor:middle;fill:#000000;fill-opacity:1;stroke:none;stroke-width:1px;stroke-linecap:butt;stroke-linejoin:miter;stroke-opacity:1;font-family:Arial" id="text2311"/>
    </g>
  </g>
</svg>