<?xml version="1.0" encoding="UTF-8" standalone="no"?>
<!-- Created with Inkscape (http://www.inkscape.org/) -->
<svg xmlns:dc="http://purl.org/dc/elements/1.1/" xmlns:cc="http://web.resource.org/cc/" xmlns:rdf="http://www.w3.org/1999/02/22-rdf-syntax-ns#" xmlns:svg="http://www.w3.org/2000/svg" xmlns="http://www.w3.org/2000/svg" xmlns:sodipodi="http://sodipodi.sourceforge.net/DTD/sodipodi-0.dtd" xmlns:inkscape="http://www.inkscape.org/namespaces/inkscape" id="svg2" sodipodi:version="0.32" inkscape:version="0.45.1" width="550" height="50" version="1.0" sodipodi:docbase="C:\Documents and Settings\Administrator\Desktop" sodipodi:docname="MICR.svg" inkscape:output_extension="org.inkscape.output.svg.inkscape">
  <metadata id="metadata7">
    <rdf:RDF>
      <cc:Work rdf:about="">
        <dc:format>image/svg+xml</dc:format>
        <dc:type rdf:resource="http://purl.org/dc/dcmitype/StillImage"/>
      </cc:Work>
    </rdf:RDF>
  </metadata>
  <defs id="defs5"/>
  <sodipodi:namedview inkscape:window-height="719" inkscape:window-width="1024" inkscape:pageshadow="2" inkscape:pageopacity="0.0" guidetolerance="10.0" gridtolerance="10.0" objecttolerance="10.0" borderopacity="1.0" bordercolor="#666666" pagecolor="#ffffff" id="base" width="550px" height="50px" inkscape:zoom="1.476" inkscape:cx="268.79463" inkscape:cy="25" inkscape:window-x="-4" inkscape:window-y="-4" inkscape:current-layer="svg2"/>
  <path style="font-size:14px;font-style:normal;font-weight:normal;fill:#000000;fill-opacity:1;stroke:none;stroke-width:1px;stroke-linecap:butt;stroke-linejoin:miter;stroke-opacity:1;font-family:GnuMICR" d="M 7.40803,29.391743 C 7.1468385,29.391744 6.9742313,29.270407 6.8902078,29.027729 C 6.8714075,28.971904 6.8620081,28.911235 6.8620095,28.845722 L 6.8620095,23.385944 C 6.8620081,23.124478 6.9833459,22.951728 7.2260232,22.867695 C 7.282133,22.849189 7.3428019,22.839932 7.40803,22.839924 L 8.500071,22.839924 C 8.7612575,22.839932 8.9338647,22.96127 9.0178933,23.203938 L 9.0460916,23.385944 L 9.0460916,28.845722 C 9.0460879,29.107199 8.9247502,29.279948 8.6820779,29.363972 C 8.625963,29.382487 8.5652941,29.391744 8.500071,29.391743 L 7.40803,29.391743 z M 11.776194,31.029804 C 11.514713,31.029804 11.341964,30.908466 11.257945,30.665791 C 11.239425,30.609679 11.230168,30.54901 11.230174,30.483784 L 11.230174,28.299702 C 11.230168,28.038515 11.351506,27.865908 11.594187,27.781879 C 11.650008,27.763084 11.710677,27.753684 11.776194,27.753681 L 13.959849,27.753681 C 14.221315,27.753684 14.394064,27.875022 14.478098,28.117695 C 14.496603,28.173809 14.50586,28.234478 14.505869,28.299702 L 14.505869,30.483784 C 14.50586,30.745259 14.384523,30.917866 14.141856,31.001606 L 13.959849,31.029804 L 11.776194,31.029804 z M 11.776194,24.477985 C 11.514713,24.477992 11.341964,24.356654 11.257945,24.113972 C 11.239425,24.057867 11.230168,23.997198 11.230174,23.931965 L 11.230174,21.747883 C 11.230168,21.486418 11.351506,21.313668 11.594187,21.229633 C 11.650008,21.211129 11.710677,21.201872 11.776194,21.201862 L 13.959849,21.201862 C 14.221315,21.201872 14.394064,21.32321 14.478098,21.565876 L 14.505869,21.747883 L 14.505869,23.931965 C 14.50586,24.193161 14.384523,24.365769 14.141856,24.449787 L 13.959849,24.477985 L 11.776194,24.477985 z M 21.211497,31.029804 C 20.950017,31.029804 20.777268,30.908466 20.693247,30.665791 C 20.674729,30.609679 20.665472,30.54901 20.665476,30.483784 L 20.665476,27.207661 C 20.665472,26.946475 20.786809,26.773868 21.02949,26.689838 C 21.085312,26.671044 21.145981,26.661645 21.211497,26.66164 C 21.472681,26.661645 21.645288,26.540307 21.729319,26.297626 C 21.748112,26.241804 21.757512,26.181136 21.757517,26.11562 L 21.757517,23.385944 C 21.757512,23.124478 21.636174,22.951728 21.393504,22.867695 L 21.211497,22.839924 C 20.950017,22.839932 20.777268,22.718594 20.693247,22.47591 C 20.674729,22.419807 20.665472,22.359138 20.665476,22.293903 L 20.665476,21.747883 C 20.665472,21.486418 20.786809,21.313668 21.02949,21.229633 C 21.085312,21.211129 21.145981,21.201872 21.211497,21.201862 L 22.303538,21.201862 C 22.564721,21.201872 22.737328,21.32321 22.82136,21.565876 L 22.849558,21.747883 L 22.849558,26.11562 C 22.849551,26.377099 22.970889,26.549849 23.213572,26.633869 C 23.269392,26.652388 23.33006,26.661645 23.395579,26.66164 L 24.487193,26.66164 C 24.748658,26.661645 24.921408,26.782982 25.005442,27.025654 L 25.033213,27.207661 L 25.033213,30.483784 C 25.033204,30.745259 24.911866,30.917866 24.669199,31.001606 L 24.487193,31.029804 L 21.211497,31.029804 z M 31.738841,31.029804 L 31.724741,31.015705 C 31.472661,31.015705 31.304611,30.899067 31.220591,30.665791 C 31.202072,30.609679 31.192815,30.54901 31.19282,30.483784 L 31.19282,26.11562 C 31.192815,25.854435 31.314153,25.681828 31.556834,25.597797 C 31.612655,25.579004 31.673324,25.569605 31.738841,25.569599 L 33.922923,25.569599 C 34.184105,25.569605 34.356712,25.448409 34.440745,25.206013 C 34.459536,25.149907 34.468935,25.089238 34.468943,25.024006 L 34.468943,22.839924 C 34.468935,22.578458 34.347597,22.405708 34.104929,22.321674 L 33.922923,22.293903 L 31.738841,22.293903 C 31.477361,22.293912 31.304611,22.172574 31.220591,21.92989 C 31.202072,21.873787 31.192815,21.813118 31.19282,21.747883 C 31.192815,21.486418 31.314153,21.313668 31.556834,21.229633 C 31.612655,21.211129 31.673324,21.201872 31.738841,21.201862 L 35.014536,21.201862 C 35.276002,21.201872 35.448752,21.32321 35.532786,21.565876 L 35.560557,21.747883 L 35.560557,26.11562 C 35.560548,26.377099 35.43921,26.549849 35.196543,26.633869 L 35.014536,26.66164 L 32.830882,26.66164 C 32.569401,26.661645 32.396651,26.782982 32.312632,27.025654 L 32.284861,27.207661 L 32.284861,29.391743 C 32.284855,29.653219 32.406193,29.825968 32.648875,29.909992 C 32.704695,29.928507 32.765364,29.937764 32.830882,29.937763 L 35.014536,29.937763 C 35.276002,29.937764 35.448752,30.059102 35.532786,30.301777 C 35.551291,30.357889 35.560548,30.418558 35.560557,30.483784 C 35.560548,30.745259 35.43921,30.917866 35.196543,31.001606 L 35.014536,31.029804 L 31.738841,31.029804 z M 41.174143,31.029804 C 40.912665,31.029804 40.739915,30.908466 40.655894,30.665791 C 40.637376,30.609679 40.628119,30.54901 40.628123,30.483784 C 40.628119,30.222595 40.749457,30.049988 40.992136,29.965961 C 41.047959,29.947164 41.108628,29.937764 41.174143,29.937763 L 43.358225,29.937763 C 43.619409,29.937764 43.792016,29.816427 43.876048,29.57375 C 43.89484,29.517924 43.904239,29.457255 43.904246,29.391743 L 43.904246,27.207661 C 43.904239,26.946475 43.782901,26.773868 43.540232,26.689838 L 43.358225,26.66164 L 41.174143,26.66164 C 40.912665,26.661645 40.739915,26.540307 40.655894,26.297626 C 40.637376,26.241804 40.628119,26.181136 40.628123,26.11562 C 40.628119,25.854435 40.749457,25.681828 40.992136,25.597797 C 41.047959,25.579004 41.108628,25.569605 41.174143,25.569599 L 43.358225,25.569599 C 43.619409,25.569605 43.792016,25.448409 43.876048,25.206013 C 43.89484,25.149907 43.904239,25.089238 43.904246,25.024006 L 43.904246,22.839924 C 43.904239,22.578458 43.782901,22.405708 43.540232,22.321674 L 43.358225,22.293903 L 41.174143,22.293903 C 40.912665,22.293912 40.739915,22.172574 40.655894,21.92989 C 40.637376,21.873787 40.628119,21.813118 40.628123,21.747883 C 40.628119,21.486418 40.749457,21.313668 40.992136,21.229633 C 41.047959,21.211129 41.108628,21.201872 41.174143,21.201862 L 44.450266,21.201862 C 44.711448,21.201872 44.884056,21.32321 44.968089,21.565876 L 44.996287,21.747883 L 44.996287,25.569599 C 44.996279,25.831079 45.117474,26.003829 45.359873,26.087849 C 45.415977,26.106368 45.476645,26.115625 45.54188,26.11562 C 45.803346,26.115625 45.976096,26.236962 46.06013,26.479633 L 46.087901,26.66164 L 46.087901,30.483784 C 46.087892,30.745259 45.966554,30.917866 45.723887,31.001606 L 45.54188,31.029804 L 41.174143,31.029804 z M 54.97761,31.029804 C 54.716128,31.029804 54.543379,30.908466 54.459361,30.665791 C 54.44084,30.609679 54.431583,30.54901 54.43159,30.483784 L 54.43159,29.391743 C 54.431583,29.130555 54.310245,28.957948 54.067576,28.87392 L 53.885569,28.845722 L 50.609446,28.845722 C 50.347969,28.845724 50.175361,28.724387 50.091624,28.481709 C 50.072822,28.425884 50.063423,28.365215 50.063426,28.299702 L 50.063426,21.747883 C 50.063423,21.486418 50.184761,21.313668 50.427439,21.229633 C 50.483548,21.211129 50.544217,21.201872 50.609446,21.201862 L 51.701487,21.201862 C 51.962672,21.201872 52.13528,21.32321 52.219309,21.565876 L 52.247508,21.747883 L 52.247508,27.207661 C 52.247503,27.469139 52.368841,27.641889 52.611521,27.72591 C 52.667343,27.744427 52.728012,27.753684 52.793528,27.753681 L 53.885569,27.753681 C 54.146752,27.753684 54.31936,27.632347 54.403391,27.389668 C 54.422183,27.333844 54.431583,27.273175 54.43159,27.207661 C 54.431583,26.946475 54.55292,26.773868 54.795603,26.689838 C 54.851423,26.671044 54.912092,26.661645 54.97761,26.66164 L 56.069224,26.66164 C 56.33069,26.661645 56.503439,26.782982 56.587473,27.025654 L 56.615244,27.207661 L 56.615244,30.483784 C 56.615235,30.745259 56.493898,30.917866 56.251231,31.001606 L 56.069224,31.029804 L 54.97761,31.029804 z M 62.228831,31.029804 C 61.967352,31.029804 61.794603,30.908466 61.710581,30.665791 C 61.692064,30.609679 61.682807,30.54901 61.68281,30.483784 C 61.682807,30.222595 61.804144,30.049988 62.046824,29.965961 C 62.102647,29.947164 62.163316,29.937764 62.228831,29.937763 L 65.504954,29.937763 C 65.766136,29.937764 65.938743,29.816427 66.022776,29.57375 C 66.041567,29.517924 66.050966,29.457255 66.050974,29.391743 L 66.050974,27.207661 C 66.050966,26.946475 65.929629,26.773868 65.686961,26.689838 L 65.504954,26.66164 L 62.228831,26.66164 C 61.967352,26.661645 61.794603,26.540307 61.710581,26.297626 C 61.692064,26.241804 61.682807,26.181136 61.68281,26.11562 L 61.68281,21.747883 C 61.682807,21.486418 61.804144,21.313668 62.046824,21.229633 C 62.102647,21.211129 62.163316,21.201872 62.228831,21.201862 L 66.596568,21.201862 C 66.858033,21.201872 67.030783,21.32321 67.114817,21.565876 L 67.142588,21.747883 C 67.142579,22.009082 67.021241,22.181689 66.778574,22.265705 L 66.596568,22.293903 L 63.320872,22.293903 C 63.059392,22.293912 62.886643,22.41525 62.802622,22.657917 L 62.774851,22.839924 L 62.774851,25.024006 C 62.774847,25.285201 62.896184,25.457809 63.138865,25.541828 C 63.194687,25.560348 63.255356,25.569605 63.320872,25.569599 L 66.596568,25.569599 C 66.858033,25.569605 67.030783,25.690942 67.114817,25.933613 L 67.142588,26.11562 L 67.142588,30.483784 C 67.142579,30.745259 67.021241,30.917866 66.778574,31.001606 L 66.596568,31.029804 L 62.228831,31.029804 z M 71.664134,31.029804 C 71.402656,31.029804 71.230049,30.908466 71.146311,30.665791 C 71.12751,30.609679 71.118111,30.54901 71.118113,30.483784 L 71.118113,21.747883 C 71.118111,21.486418 71.239448,21.313668 71.482127,21.229633 C 71.538235,21.211129 71.598904,21.201872 71.664134,21.201862 L 74.940257,21.201862 C 75.20144,21.201872 75.374047,21.32321 75.458079,21.565876 L 75.486277,21.747883 L 75.486277,23.385944 C 75.48627,23.647142 75.364932,23.819749 75.122263,23.903767 L 74.940257,23.931965 C 74.678776,23.931972 74.506026,23.810634 74.422007,23.567951 C 74.403487,23.511847 74.39423,23.451178 74.394236,23.385944 L 74.394236,22.839924 C 74.39423,22.578458 74.272893,22.405708 74.030222,22.321674 L 73.848216,22.293903 L 72.756175,22.293903 C 72.494696,22.293912 72.321946,22.41525 72.237925,22.657917 L 72.210154,22.839924 L 72.210154,26.11562 C 72.21015,26.377099 72.331488,26.549849 72.574168,26.633869 C 72.629991,26.652388 72.690659,26.661645 72.756175,26.66164 L 77.123911,26.66164 C 77.385377,26.661645 77.558127,26.782982 77.642161,27.025654 L 77.669932,27.207661 L 77.669932,30.483784 C 77.669923,30.745259 77.548585,30.917866 77.305918,31.001606 L 77.123911,31.029804 L 71.664134,31.029804 z M 72.756175,29.937763 L 76.032298,29.937763 C 76.29348,29.937764 76.466087,29.816427 76.55012,29.57375 C 76.568911,29.517924 76.57831,29.457255 76.578318,29.391743 L 76.578318,28.299702 C 76.57831,28.038515 76.456972,27.865908 76.214304,27.781879 L 76.032298,27.753681 L 72.756175,27.753681 C 72.494696,27.753684 72.321946,27.875022 72.237925,28.117695 C 72.219407,28.173809 72.21015,28.234478 72.210154,28.299702 L 72.210154,29.391743 C 72.21015,29.653219 72.331488,29.825968 72.574168,29.909992 C 72.629991,29.928507 72.690659,29.937764 72.756175,29.937763 L 72.756175,29.937763 z M 85.4676,31.029804 C 85.20612,31.029804 85.03337,30.908466 84.949351,30.665791 C 84.930831,30.609679 84.921574,30.54901 84.92158,30.483784 L 84.92158,26.11562 C 84.921574,25.872949 85.033512,25.705041 85.257395,25.611897 L 86.769419,24.981709 C 86.993573,24.888575 87.105654,24.720667 87.105662,24.477985 L 87.105662,22.839924 C 87.105654,22.578458 86.984316,22.405708 86.741648,22.321674 L 86.559641,22.293903 L 84.375559,22.293903 C 84.11408,22.293912 83.94133,22.41525 83.85731,22.657917 L 83.829539,22.839924 L 83.829539,23.931965 C 83.829534,24.193161 83.708196,24.365769 83.465525,24.449787 L 83.283518,24.477985 C 83.02204,24.477992 82.84929,24.356654 82.765269,24.113972 C 82.746751,24.057867 82.737494,23.997198 82.737498,23.931965 L 82.737498,21.747883 C 82.737494,21.486418 82.858832,21.313668 83.101511,21.229633 C 83.157334,21.211129 83.218003,21.201872 83.283518,21.201862 L 87.651255,21.201862 C 87.912721,21.201872 88.085471,21.32321 88.169505,21.565876 L 88.197276,21.747883 L 88.197276,25.219685 C 88.197267,25.462366 88.085328,25.630416 87.86146,25.723835 L 86.349436,26.325825 C 86.125552,26.419254 86.013614,26.587304 86.013621,26.829975 L 86.013621,30.483784 C 86.013614,30.745259 85.892276,30.917866 85.649607,31.001606 L 85.4676,31.029804 z M 91.62678,31.029804 C 91.365589,31.029804 91.192981,30.908466 91.108958,30.665791 C 91.090157,30.609679 91.080758,30.54901 91.08076,30.483784 L 91.08076,26.66164 C 91.080758,26.400455 91.202096,26.227848 91.444773,26.143818 C 91.500883,26.125024 91.561552,26.115625 91.62678,26.11562 C 91.888252,26.115625 92.06086,25.994287 92.144602,25.751606 C 92.163399,25.695784 92.172798,25.635116 92.172801,25.569599 L 92.172801,21.747883 C 92.172798,21.486418 92.294136,21.313668 92.536814,21.229633 C 92.592923,21.211129 92.653592,21.201872 92.718821,21.201862 L 97.086985,21.201862 C 97.348167,21.201872 97.520774,21.32321 97.604807,21.565876 L 97.633006,21.747883 L 97.633006,25.569599 C 97.632998,25.831079 97.754193,26.003829 97.996592,26.087849 C 98.052695,26.106368 98.113364,26.115625 98.178599,26.11562 C 98.440065,26.115625 98.612814,26.236962 98.696848,26.479633 L 98.724619,26.66164 L 98.724619,30.483784 C 98.72461,30.745259 98.603273,30.917866 98.360606,31.001606 L 98.178599,31.029804 L 91.62678,31.029804 z M 93.810862,29.937763 L 95.994944,29.937763 C 96.256127,29.937764 96.428735,29.816427 96.512766,29.57375 C 96.531558,29.517924 96.540958,29.457255 96.540965,29.391743 L 96.540965,27.207661 C 96.540958,26.946475 96.41962,26.773868 96.176951,26.689838 L 95.994944,26.66164 L 93.810862,26.66164 C 93.549384,26.661645 93.376634,26.782982 93.292613,27.025654 L 93.264842,27.207661 L 93.264842,29.391743 C 93.264838,29.653219 93.386176,29.825968 93.628855,29.909992 C 93.684678,29.928507 93.745347,29.937764 93.810862,29.937763 L 93.810862,29.937763 z M 93.810862,25.569599 L 95.994944,25.569599 C 96.256127,25.569605 96.428735,25.448409 96.512766,25.206013 C 96.531558,25.149907 96.540958,25.089238 96.540965,25.024006 L 96.540965,22.839924 C 96.540958,22.578458 96.41962,22.405708 96.176951,22.321674 L 95.994944,22.293903 L 93.810862,22.293903 C 93.549384,22.293912 93.376634,22.41525 93.292613,22.657917 L 93.264842,22.839924 L 93.264842,25.024006 C 93.264838,25.285201 93.386176,25.457809 93.628855,25.541828 C 93.684678,25.560348 93.745347,25.569605 93.810862,25.569599 L 93.810862,25.569599 z M 107.61433,31.029804 C 107.35285,31.029804 107.1801,30.908466 107.09608,30.665791 C 107.07756,30.609679 107.0683,30.54901 107.06831,30.483784 L 107.06831,27.207661 C 107.0683,26.946475 106.94696,26.773868 106.70429,26.689838 L 106.52229,26.66164 L 103.24616,26.66164 C 102.98469,26.661645 102.81208,26.540307 102.72834,26.297626 C 102.70954,26.241804 102.70014,26.181136 102.70014,26.11562 L 102.70014,21.747883 C 102.70014,21.486418 102.82148,21.313668 103.06416,21.229633 C 103.12027,21.211129 103.18094,21.201872 103.24616,21.201862 L 108.70594,21.201862 C 108.96741,21.201872 109.14016,21.32321 109.22419,21.565876 L 109.25196,21.747883 L 109.25196,30.483784 C 109.25195,30.745259 109.13062,30.917866 108.88795,31.001606 L 108.70594,31.029804 L 107.61433,31.029804 z M 107.61433,25.569599 C 107.87551,25.569605 108.04812,25.448409 108.13215,25.206013 C 108.15094,25.149907 108.16034,25.089238 108.16035,25.024006 L 108.16035,22.839924 C 108.16034,22.578458 108.039,22.405708 107.79634,22.321674 L 107.61433,22.293903 L 104.33821,22.293903 C 104.07673,22.293912 103.90398,22.41525 103.81996,22.657917 L 103.79219,22.839924 L 103.79219,25.024006 C 103.79218,25.285201 103.91352,25.457809 104.1562,25.541828 C 104.21202,25.560348 104.27269,25.569605 104.33821,25.569599 L 107.61433,25.569599 z M 114.31953,31.029804 C 113.6103,31.029804 113.03622,30.745116 112.5973,30.175739 C 112.2894,29.783813 112.13545,29.340475 112.13545,28.845722 L 112.13545,23.385944 C 112.13545,22.676439 112.42013,22.102364 112.98951,21.663715 C 113.38144,21.355823 113.82477,21.201872 114.31953,21.201862 L 117.59565,21.201862 C 118.30487,21.201872 118.87881,21.48656 119.31745,22.055927 C 119.62535,22.447863 119.7793,22.891202 119.77931,23.385944 L 119.77931,28.845722 C 119.7793,29.555237 119.49475,30.129313 118.92567,30.567951 C 118.53345,30.875853 118.09011,31.029804 117.59565,31.029804 L 114.31953,31.029804 z M 114.31953,29.937763 L 117.59565,29.937763 C 118.02488,29.937764 118.34219,29.751058 118.54756,29.377644 C 118.64097,29.20988 118.68769,29.032573 118.68769,28.845722 L 118.68769,23.385944 C 118.68769,22.956428 118.50098,22.638984 118.12757,22.433613 C 117.95952,22.340482 117.78221,22.293912 117.59565,22.293903 L 114.31953,22.293903 C 113.89029,22.293912 113.57298,22.480476 113.36762,22.853596 C 113.2742,23.021654 113.22749,23.199103 113.22749,23.385944 L 113.22749,28.845722 C 113.22749,29.275249 113.41419,29.59255 113.78761,29.797626 C 113.95565,29.891052 114.13296,29.937764 114.31953,29.937763 L 114.31953,29.937763 z M 123.20881,29.391743 C 122.94762,29.391744 122.77501,29.270407 122.69099,29.027729 C 122.67219,28.971904 122.66279,28.911235 122.66279,28.845722 L 122.66279,23.385944 C 122.66279,23.124478 122.78413,22.951728 123.0268,22.867695 C 123.08291,22.849189 123.14358,22.839932 123.20881,22.839924 L 124.30085,22.839924 C 124.56204,22.839932 124.73465,22.96127 124.81867,23.203938 L 124.84687,23.385944 L 124.84687,28.845722 C 124.84687,29.107199 124.72553,29.279948 124.48286,29.363972 C 124.42674,29.382487 124.36608,29.391744 124.30085,29.391743 L 123.20881,29.391743 z M 127.57698,31.029804 C 127.31549,31.029804 127.14274,30.908466 127.05873,30.665791 C 127.04021,30.609679 127.03095,30.54901 127.03095,30.483784 L 127.03095,28.299702 C 127.03095,28.038515 127.15229,27.865908 127.39497,27.781879 C 127.45079,27.763084 127.51146,27.753684 127.57698,27.753681 L 129.76063,27.753681 C 130.0221,27.753684 130.19485,27.875022 130.27888,28.117695 C 130.29738,28.173809 130.30664,28.234478 130.30665,28.299702 L 130.30665,30.483784 C 130.30664,30.745259 130.1853,30.917866 129.94264,31.001606 L 129.76063,31.029804 L 127.57698,31.029804 z M 127.57698,24.477985 C 127.31549,24.477992 127.14274,24.356654 127.05873,24.113972 C 127.04021,24.057867 127.03095,23.997198 127.03095,23.931965 L 127.03095,21.747883 C 127.03095,21.486418 127.15229,21.313668 127.39497,21.229633 C 127.45079,21.211129 127.51146,21.201872 127.57698,21.201862 L 129.76063,21.201862 C 130.0221,21.201872 130.19485,21.32321 130.27888,21.565876 L 130.30665,21.747883 L 130.30665,23.931965 C 130.30664,24.193161 130.1853,24.365769 129.94264,24.449787 L 129.76063,24.477985 L 127.57698,24.477985 z M 144.2635,29.391743 C 144.00231,29.391744 143.8297,29.270407 143.74568,29.027729 C 143.72688,28.971904 143.71748,28.911235 143.71748,28.845722 L 143.71748,23.385944 C 143.71748,23.124478 143.83881,22.951728 144.08149,22.867695 C 144.1376,22.849189 144.19827,22.839932 144.2635,22.839924 C 144.52497,22.839932 144.69758,22.96127 144.78132,23.203938 L 144.80952,23.385944 L 144.80952,28.845722 C 144.80952,29.107199 144.68818,29.279948 144.44551,29.363972 C 144.38939,29.382487 144.32872,29.391744 144.2635,29.391743 L 144.2635,29.391743 z M 146.44758,29.391743 C 146.1861,29.391744 146.01335,29.270407 145.92933,29.027729 C 145.91081,28.971904 145.90156,28.911235 145.90156,28.845722 L 145.90156,23.385944 C 145.90156,23.124478 146.02289,22.951728 146.26557,22.867695 C 146.3214,22.849189 146.38207,22.839932 146.44758,22.839924 C 146.70877,22.839932 146.88137,22.96127 146.9654,23.203938 L 146.9936,23.385944 L 146.9936,28.845722 C 146.9936,29.107199 146.87226,29.279948 146.62959,29.363972 L 146.44758,29.391743 z M 148.63166,26.11562 C 148.37018,26.115625 148.19743,25.994287 148.11341,25.751606 C 148.09489,25.695784 148.08564,25.635116 148.08564,25.569599 L 148.08564,22.293903 C 148.08564,22.032438 148.20697,21.859688 148.44966,21.775654 C 148.50548,21.757149 148.56615,21.747892 148.63166,21.747883 L 150.81532,21.747883 C 151.07678,21.747892 151.24953,21.86923 151.33357,22.111897 L 151.36134,22.293903 L 151.36134,25.569599 C 151.36133,25.831079 151.23999,26.003829 150.99732,26.087849 L 150.81532,26.11562 L 148.63166,26.11562 z M 158.06697,31.029804 C 157.80549,31.029804 157.63274,30.908466 157.54872,30.665791 C 157.5302,30.609679 157.52094,30.54901 157.52095,30.483784 L 157.52095,27.207661 C 157.52094,26.946475 157.64228,26.773868 157.88496,26.689838 C 157.94078,26.671044 158.00145,26.661645 158.06697,26.66164 C 158.32815,26.661645 158.50076,26.540307 158.58479,26.297626 C 158.60358,26.241804 158.61298,26.181136 158.61299,26.11562 L 158.61299,23.385944 C 158.61298,23.124478 158.49164,22.951728 158.24897,22.867695 L 158.06697,22.839924 C 157.80549,22.839932 157.63274,22.718594 157.54872,22.47591 C 157.5302,22.419807 157.52094,22.359138 157.52095,22.293903 L 157.52095,21.747883 C 157.52094,21.486418 157.64228,21.313668 157.88496,21.229633 C 157.94078,21.211129 158.00145,21.201872 158.06697,21.201862 L 159.15901,21.201862 C 159.42019,21.201872 159.5928,21.32321 159.67683,21.565876 L 159.70503,21.747883 L 159.70503,26.11562 C 159.70502,26.377099 159.82636,26.549849 160.06904,26.633869 C 160.12486,26.652388 160.18553,26.661645 160.25105,26.66164 L 161.34266,26.66164 C 161.60413,26.661645 161.77688,26.782982 161.86091,27.025654 L 161.88868,27.207661 L 161.88868,30.483784 C 161.88867,30.745259 161.76734,30.917866 161.52467,31.001606 L 161.34266,31.029804 L 158.06697,31.029804 z M 168.59431,31.029804 L 168.58021,31.015705 C 168.32813,31.015705 168.16008,30.899067 168.07606,30.665791 C 168.05754,30.609679 168.04828,30.54901 168.04829,30.483784 L 168.04829,26.11562 C 168.04828,25.854435 168.16962,25.681828 168.4123,25.597797 C 168.46812,25.579004 168.52879,25.569605 168.59431,25.569599 L 170.77839,25.569599 C 171.03957,25.569605 171.21218,25.448409 171.29621,25.206013 C 171.315,25.149907 171.3244,25.089238 171.32441,25.024006 L 171.32441,22.839924 C 171.3244,22.578458 171.20307,22.405708 170.9604,22.321674 L 170.77839,22.293903 L 168.59431,22.293903 C 168.33283,22.293912 168.16008,22.172574 168.07606,21.92989 C 168.05754,21.873787 168.04828,21.813118 168.04829,21.747883 C 168.04828,21.486418 168.16962,21.313668 168.4123,21.229633 C 168.46812,21.211129 168.52879,21.201872 168.59431,21.201862 L 171.87001,21.201862 C 172.13147,21.201872 172.30422,21.32321 172.38825,21.565876 L 172.41603,21.747883 L 172.41603,26.11562 C 172.41602,26.377099 172.29468,26.549849 172.05201,26.633869 L 171.87001,26.66164 L 169.68635,26.66164 C 169.42487,26.661645 169.25212,26.782982 169.1681,27.025654 L 169.14033,27.207661 L 169.14033,29.391743 C 169.14032,29.653219 169.26166,29.825968 169.50434,29.909992 C 169.56016,29.928507 169.62083,29.937764 169.68635,29.937763 L 171.87001,29.937763 C 172.13147,29.937764 172.30422,30.059102 172.38825,30.301777 C 172.40676,30.357889 172.41602,30.418558 172.41603,30.483784 C 172.41602,30.745259 172.29468,30.917866 172.05201,31.001606 L 171.87001,31.029804 L 168.59431,31.029804 z M 178.02961,31.029804 C 177.76813,31.029804 177.59538,30.908466 177.51136,30.665791 C 177.49284,30.609679 177.48359,30.54901 177.48359,30.483784 C 177.48359,30.222595 177.60493,30.049988 177.84761,29.965961 C 177.90343,29.947164 177.9641,29.937764 178.02961,29.937763 L 180.21369,29.937763 C 180.47488,29.937764 180.64748,29.816427 180.73152,29.57375 C 180.75031,29.517924 180.75971,29.457255 180.75971,29.391743 L 180.75971,27.207661 C 180.75971,26.946475 180.63837,26.773868 180.3957,26.689838 L 180.21369,26.66164 L 178.02961,26.66164 C 177.76813,26.661645 177.59538,26.540307 177.51136,26.297626 C 177.49284,26.241804 177.48359,26.181136 177.48359,26.11562 C 177.48359,25.854435 177.60493,25.681828 177.84761,25.597797 C 177.90343,25.579004 177.9641,25.569605 178.02961,25.569599 L 180.21369,25.569599 C 180.47488,25.569605 180.64748,25.448409 180.73152,25.206013 C 180.75031,25.149907 180.75971,25.089238 180.75971,25.024006 L 180.75971,22.839924 C 180.75971,22.578458 180.63837,22.405708 180.3957,22.321674 L 180.21369,22.293903 L 178.02961,22.293903 C 177.76813,22.293912 177.59538,22.172574 177.51136,21.92989 C 177.49284,21.873787 177.48359,21.813118 177.48359,21.747883 C 177.48359,21.486418 177.60493,21.313668 177.84761,21.229633 C 177.90343,21.211129 177.9641,21.201872 178.02961,21.201862 L 181.30574,21.201862 C 181.56692,21.201872 181.73952,21.32321 181.82356,21.565876 L 181.85176,21.747883 L 181.85176,25.569599 C 181.85175,25.831079 181.97294,26.003829 182.21534,26.087849 C 182.27145,26.106368 182.33211,26.115625 182.39735,26.11562 C 182.65881,26.115625 182.83156,26.236962 182.9156,26.479633 L 182.94337,26.66164 L 182.94337,30.483784 C 182.94336,30.745259 182.82202,30.917866 182.57936,31.001606 L 182.39735,31.029804 L 178.02961,31.029804 z M 191.83308,31.029804 C 191.5716,31.029804 191.39885,30.908466 191.31483,30.665791 C 191.29631,30.609679 191.28705,30.54901 191.28706,30.483784 L 191.28706,29.391743 C 191.28705,29.130555 191.16571,28.957948 190.92304,28.87392 L 190.74104,28.845722 L 187.46491,28.845722 C 187.20344,28.845724 187.03083,28.724387 186.94709,28.481709 C 186.92829,28.425884 186.91889,28.365215 186.91889,28.299702 L 186.91889,21.747883 C 186.91889,21.486418 187.04023,21.313668 187.28291,21.229633 C 187.33902,21.211129 187.39969,21.201872 187.46491,21.201862 L 188.55696,21.201862 C 188.81814,21.201872 188.99075,21.32321 189.07478,21.565876 L 189.10298,21.747883 L 189.10298,27.207661 C 189.10297,27.469139 189.22431,27.641889 189.46699,27.72591 C 189.52281,27.744427 189.58348,27.753684 189.649,27.753681 L 190.74104,27.753681 C 191.00222,27.753684 191.17483,27.632347 191.25886,27.389668 C 191.27765,27.333844 191.28705,27.273175 191.28706,27.207661 C 191.28705,26.946475 191.40839,26.773868 191.65107,26.689838 C 191.70689,26.671044 191.76756,26.661645 191.83308,26.66164 L 192.92469,26.66164 C 193.18616,26.661645 193.35891,26.782982 193.44294,27.025654 L 193.47071,27.207661 L 193.47071,30.483784 C 193.4707,30.745259 193.34937,30.917866 193.1067,31.001606 L 192.92469,31.029804 L 191.83308,31.029804 z M 199.0843,31.029804 C 198.82282,31.029804 198.65007,30.908466 198.56605,30.665791 C 198.54753,30.609679 198.53828,30.54901 198.53828,30.483784 C 198.53828,30.222595 198.65961,30.049988 198.90229,29.965961 C 198.95812,29.947164 199.01878,29.937764 199.0843,29.937763 L 202.36042,29.937763 C 202.6216,29.937764 202.79421,29.816427 202.87824,29.57375 C 202.89704,29.517924 202.90644,29.457255 202.90644,29.391743 L 202.90644,27.207661 C 202.90644,26.946475 202.7851,26.773868 202.54243,26.689838 L 202.36042,26.66164 L 199.0843,26.66164 C 198.82282,26.661645 198.65007,26.540307 198.56605,26.297626 C 198.54753,26.241804 198.53828,26.181136 198.53828,26.11562 L 198.53828,21.747883 C 198.53828,21.486418 198.65961,21.313668 198.90229,21.229633 C 198.95812,21.211129 199.01878,21.201872 199.0843,21.201862 L 203.45204,21.201862 C 203.7135,21.201872 203.88625,21.32321 203.97029,21.565876 L 203.99806,21.747883 C 203.99805,22.009082 203.87671,22.181689 203.63404,22.265705 L 203.45204,22.293903 L 200.17634,22.293903 C 199.91486,22.293912 199.74211,22.41525 199.65809,22.657917 L 199.63032,22.839924 L 199.63032,25.024006 C 199.63032,25.285201 199.75165,25.457809 199.99433,25.541828 C 200.05016,25.560348 200.11082,25.569605 200.17634,25.569599 L 203.45204,25.569599 C 203.7135,25.569605 203.88625,25.690942 203.97029,25.933613 L 203.99806,26.11562 L 203.99806,30.483784 C 203.99805,30.745259 203.87671,30.917866 203.63404,31.001606 L 203.45204,31.029804 L 199.0843,31.029804 z M 208.5196,31.029804 C 208.25812,31.029804 208.08552,30.908466 208.00178,30.665791 C 207.98298,30.609679 207.97358,30.54901 207.97358,30.483784 L 207.97358,21.747883 C 207.97358,21.486418 208.09492,21.313668 208.3376,21.229633 C 208.3937,21.211129 208.45437,21.201872 208.5196,21.201862 L 211.79573,21.201862 C 212.05691,21.201872 212.22952,21.32321 212.31355,21.565876 L 212.34175,21.747883 L 212.34175,23.385944 C 212.34174,23.647142 212.2204,23.819749 211.97773,23.903767 L 211.79573,23.931965 C 211.53424,23.931972 211.36149,23.810634 211.27748,23.567951 C 211.25896,23.511847 211.2497,23.451178 211.2497,23.385944 L 211.2497,22.839924 C 211.2497,22.578458 211.12836,22.405708 210.88569,22.321674 L 210.70368,22.293903 L 209.61164,22.293903 C 209.35016,22.293912 209.17742,22.41525 209.09339,22.657917 L 209.06562,22.839924 L 209.06562,26.11562 C 209.06562,26.377099 209.18696,26.549849 209.42964,26.633869 C 209.48546,26.652388 209.54613,26.661645 209.61164,26.66164 L 213.97938,26.66164 C 214.24085,26.661645 214.4136,26.782982 214.49763,27.025654 L 214.5254,27.207661 L 214.5254,30.483784 C 214.52539,30.745259 214.40405,30.917866 214.16139,31.001606 L 213.97938,31.029804 L 208.5196,31.029804 z M 209.61164,29.937763 L 212.88777,29.937763 C 213.14895,29.937764 213.32156,29.816427 213.40559,29.57375 C 213.42438,29.517924 213.43378,29.457255 213.43379,29.391743 L 213.43379,28.299702 C 213.43378,28.038515 213.31244,27.865908 213.06977,27.781879 L 212.88777,27.753681 L 209.61164,27.753681 C 209.35016,27.753684 209.17742,27.875022 209.09339,28.117695 C 209.07488,28.173809 209.06562,28.234478 209.06562,28.299702 L 209.06562,29.391743 C 209.06562,29.653219 209.18696,29.825968 209.42964,29.909992 C 209.48546,29.928507 209.54613,29.937764 209.61164,29.937763 L 209.61164,29.937763 z M 222.32307,31.029804 C 222.06159,31.029804 221.88884,30.908466 221.80482,30.665791 C 221.7863,30.609679 221.77704,30.54901 221.77705,30.483784 L 221.77705,26.11562 C 221.77704,25.872949 221.88898,25.705041 222.11286,25.611897 L 223.62489,24.981709 C 223.84904,24.888575 223.96112,24.720667 223.96113,24.477985 L 223.96113,22.839924 C 223.96112,22.578458 223.83978,22.405708 223.59712,22.321674 L 223.41511,22.293903 L 221.23103,22.293903 C 220.96955,22.293912 220.7968,22.41525 220.71278,22.657917 L 220.68501,22.839924 L 220.68501,23.931965 C 220.685,24.193161 220.56367,24.365769 220.32099,24.449787 L 220.13899,24.477985 C 219.87751,24.477992 219.70476,24.356654 219.62074,24.113972 C 219.60222,24.057867 219.59296,23.997198 219.59297,23.931965 L 219.59297,21.747883 C 219.59296,21.486418 219.7143,21.313668 219.95698,21.229633 C 220.0128,21.211129 220.07347,21.201872 220.13899,21.201862 L 224.50672,21.201862 C 224.76819,21.201872 224.94094,21.32321 225.02497,21.565876 L 225.05274,21.747883 L 225.05274,25.219685 C 225.05274,25.462366 224.9408,25.630416 224.71693,25.723835 L 223.20491,26.325825 C 222.98102,26.419254 222.86908,26.587304 222.86909,26.829975 L 222.86909,30.483784 C 222.86908,30.745259 222.74774,30.917866 222.50508,31.001606 L 222.32307,31.029804 z M 228.48225,31.029804 C 228.22106,31.029804 228.04845,30.908466 227.96443,30.665791 C 227.94563,30.609679 227.93623,30.54901 227.93623,30.483784 L 227.93623,26.66164 C 227.93623,26.400455 228.05756,26.227848 228.30024,26.143818 C 228.35635,26.125024 228.41702,26.115625 228.48225,26.11562 C 228.74372,26.115625 228.91633,25.994287 229.00007,25.751606 C 229.01887,25.695784 229.02827,25.635116 229.02827,25.569599 L 229.02827,21.747883 C 229.02827,21.486418 229.1496,21.313668 229.39228,21.229633 C 229.44839,21.211129 229.50906,21.201872 229.57429,21.201862 L 233.94245,21.201862 C 234.20364,21.201872 234.37624,21.32321 234.46028,21.565876 L 234.48847,21.747883 L 234.48847,25.569599 C 234.48847,25.831079 234.60966,26.003829 234.85206,26.087849 C 234.90816,26.106368 234.96883,26.115625 235.03407,26.11562 C 235.29553,26.115625 235.46828,26.236962 235.55232,26.479633 L 235.58009,26.66164 L 235.58009,30.483784 C 235.58008,30.745259 235.45874,30.917866 235.21607,31.001606 L 235.03407,31.029804 L 228.48225,31.029804 z M 230.66633,29.937763 L 232.85041,29.937763 C 233.1116,29.937764 233.2842,29.816427 233.36824,29.57375 C 233.38703,29.517924 233.39643,29.457255 233.39643,29.391743 L 233.39643,27.207661 C 233.39643,26.946475 233.27509,26.773868 233.03242,26.689838 L 232.85041,26.66164 L 230.66633,26.66164 C 230.40485,26.661645 230.2321,26.782982 230.14808,27.025654 L 230.12031,27.207661 L 230.12031,29.391743 C 230.12031,29.653219 230.24164,29.825968 230.48432,29.909992 C 230.54015,29.928507 230.60082,29.937764 230.66633,29.937763 L 230.66633,29.937763 z M 230.66633,25.569599 L 232.85041,25.569599 C 233.1116,25.569605 233.2842,25.448409 233.36824,25.206013 C 233.38703,25.149907 233.39643,25.089238 233.39643,25.024006 L 233.39643,22.839924 C 233.39643,22.578458 233.27509,22.405708 233.03242,22.321674 L 232.85041,22.293903 L 230.66633,22.293903 C 230.40485,22.293912 230.2321,22.41525 230.14808,22.657917 L 230.12031,22.839924 L 230.12031,25.024006 C 230.12031,25.285201 230.24164,25.457809 230.48432,25.541828 C 230.54015,25.560348 230.60082,25.569605 230.66633,25.569599 L 230.66633,25.569599 z M 244.4698,31.029804 C 244.20832,31.029804 244.03557,30.908466 243.95155,30.665791 C 243.93303,30.609679 243.92377,30.54901 243.92378,30.483784 L 243.92378,27.207661 C 243.92377,26.946475 243.80243,26.773868 243.55976,26.689838 L 243.37776,26.66164 L 240.10163,26.66164 C 239.84016,26.661645 239.66755,26.540307 239.58381,26.297626 C 239.56501,26.241804 239.55561,26.181136 239.55561,26.11562 L 239.55561,21.747883 C 239.55561,21.486418 239.67695,21.313668 239.91963,21.229633 C 239.97574,21.211129 240.0364,21.201872 240.10163,21.201862 L 245.56141,21.201862 C 245.82288,21.201872 245.99563,21.32321 246.07966,21.565876 L 246.10743,21.747883 L 246.10743,30.483784 C 246.10742,30.745259 245.98609,30.917866 245.74342,31.001606 L 245.56141,31.029804 L 244.4698,31.029804 z M 244.4698,25.569599 C 244.73098,25.569605 244.90359,25.448409 244.98762,25.206013 C 245.00641,25.149907 245.01581,25.089238 245.01582,25.024006 L 245.01582,22.839924 C 245.01581,22.578458 244.89447,22.405708 244.6518,22.321674 L 244.4698,22.293903 L 241.19367,22.293903 C 240.9322,22.293912 240.75945,22.41525 240.67543,22.657917 L 240.64765,22.839924 L 240.64765,25.024006 C 240.64765,25.285201 240.76899,25.457809 241.01167,25.541828 C 241.06749,25.560348 241.12816,25.569605 241.19367,25.569599 L 244.4698,25.569599 z M 251.175,31.029804 C 250.46577,31.029804 249.89169,30.745116 249.45277,30.175739 C 249.14487,29.783813 248.99091,29.340475 248.99092,28.845722 L 248.99092,23.385944 C 248.99091,22.676439 249.2756,22.102364 249.84498,21.663715 C 250.23691,21.355823 250.68024,21.201872 251.175,21.201862 L 254.45112,21.201862 C 255.16034,21.201872 255.73428,21.48656 256.17292,22.055927 C 256.48082,22.447863 256.63477,22.891202 256.63478,23.385944 L 256.63478,28.845722 C 256.63477,29.555237 256.35022,30.129313 255.78114,30.567951 C 255.38892,30.875853 254.94558,31.029804 254.45112,31.029804 L 251.175,31.029804 z M 251.175,29.937763 L 254.45112,29.937763 C 254.88035,29.937764 255.19765,29.751058 255.40303,29.377644 C 255.49644,29.20988 255.54315,29.032573 255.54316,28.845722 L 255.54316,23.385944 C 255.54315,22.956428 255.35645,22.638984 254.98304,22.433613 C 254.81498,22.340482 254.63768,22.293912 254.45112,22.293903 L 251.175,22.293903 C 250.74575,22.293912 250.42845,22.480476 250.22309,22.853596 C 250.12967,23.021654 250.08295,23.199103 250.08296,23.385944 L 250.08296,28.845722 C 250.08295,29.275249 250.26966,29.59255 250.64308,29.797626 C 250.81112,29.891052 250.98843,29.937764 251.175,29.937763 L 251.175,29.937763 z M 260.06428,29.391743 C 259.80309,29.391744 259.63048,29.270407 259.54646,29.027729 C 259.52766,28.971904 259.51826,28.911235 259.51826,28.845722 L 259.51826,23.385944 C 259.51826,23.124478 259.6396,22.951728 259.88227,22.867695 C 259.93838,22.849189 259.99905,22.839932 260.06428,22.839924 C 260.32575,22.839932 260.49836,22.96127 260.5821,23.203938 L 260.6103,23.385944 L 260.6103,28.845722 C 260.6103,29.107199 260.48896,29.279948 260.24629,29.363972 C 260.19017,29.382487 260.1295,29.391744 260.06428,29.391743 L 260.06428,29.391743 z M 262.24836,29.391743 C 261.98688,29.391744 261.81413,29.270407 261.73011,29.027729 C 261.71159,28.971904 261.70234,28.911235 261.70234,28.845722 L 261.70234,23.385944 C 261.70234,23.124478 261.82368,22.951728 262.06636,22.867695 C 262.12218,22.849189 262.18285,22.839932 262.24836,22.839924 C 262.50955,22.839932 262.68215,22.96127 262.76618,23.203938 L 262.79438,23.385944 L 262.79438,28.845722 C 262.79438,29.107199 262.67304,29.279948 262.43037,29.363972 L 262.24836,29.391743 z M 264.43244,26.11562 C 264.17096,26.115625 263.99821,25.994287 263.91419,25.751606 C 263.89567,25.695784 263.88642,25.635116 263.88642,25.569599 L 263.88642,22.293903 C 263.88642,22.032438 264.00776,21.859688 264.25044,21.775654 C 264.30626,21.757149 264.36693,21.747892 264.43244,21.747883 L 266.6161,21.747883 C 266.87756,21.747892 267.05031,21.86923 267.13435,22.111897 L 267.16212,22.293903 L 267.16212,25.569599 C 267.16211,25.831079 267.04077,26.003829 266.79811,26.087849 L 266.6161,26.11562 L 264.43244,26.11562 z M 281.11897,31.029804 C 280.85778,31.029804 280.68517,30.908466 280.60115,30.665791 C 280.58234,30.609679 280.57295,30.54901 280.57295,30.483784 L 280.57295,27.207661 C 280.57295,26.946475 280.69428,26.773868 280.93696,26.689838 C 280.99307,26.671044 281.05374,26.661645 281.11897,26.66164 L 282.21101,26.66164 C 282.47219,26.661645 282.6448,26.782982 282.72883,27.025654 L 282.75703,27.207661 L 282.75703,30.483784 C 282.75703,30.745259 282.63569,30.917866 282.39302,31.001606 C 282.3369,31.020405 282.27623,31.029804 282.21101,31.029804 L 281.11897,31.029804 z M 284.39509,28.565876 C 284.13361,28.565878 283.96086,28.444541 283.87684,28.201862 C 283.85832,28.145754 283.84907,28.085085 283.84907,28.019855 L 283.84907,24.197712 C 283.84907,23.936529 283.9704,23.763922 284.21308,23.67989 C 284.26891,23.661098 284.32957,23.651699 284.39509,23.651691 C 284.65627,23.651699 284.82888,23.773037 284.91291,24.015705 L 284.94111,24.197712 L 284.94111,28.019855 C 284.94111,28.281048 284.81977,28.453655 284.5771,28.537678 L 284.39509,28.565876 z M 286.57917,25.569599 C 286.31769,25.569605 286.14494,25.448409 286.06092,25.206013 C 286.0424,25.149907 286.03315,25.089238 286.03315,25.024006 L 286.03315,21.747883 C 286.03315,21.486418 286.15448,21.313668 286.39717,21.229633 C 286.45299,21.211129 286.51365,21.201872 286.57917,21.201862 L 287.67079,21.201862 C 287.93225,21.201872 288.105,21.32321 288.18904,21.565876 L 288.21681,21.747883 L 288.21681,25.024006 C 288.2168,25.285201 288.09546,25.457809 287.85279,25.541828 L 287.67079,25.569599 L 286.57917,25.569599 z M 294.92243,31.029804 C 294.66095,31.029804 294.48821,30.908466 294.40418,30.665791 C 294.38567,30.609679 294.37641,30.54901 294.37641,30.483784 L 294.37641,27.207661 C 294.37641,26.946475 294.49775,26.773868 294.74043,26.689838 C 294.79625,26.671044 294.85692,26.661645 294.92243,26.66164 C 295.18362,26.661645 295.35623,26.540307 295.44026,26.297626 C 295.45905,26.241804 295.46845,26.181136 295.46845,26.11562 L 295.46845,23.385944 C 295.46845,23.124478 295.34711,22.951728 295.10444,22.867695 L 294.92243,22.839924 C 294.66095,22.839932 294.48821,22.718594 294.40418,22.47591 C 294.38567,22.419807 294.37641,22.359138 294.37641,22.293903 L 294.37641,21.747883 C 294.37641,21.486418 294.49775,21.313668 294.74043,21.229633 C 294.79625,21.211129 294.85692,21.201872 294.92243,21.201862 L 296.01448,21.201862 C 296.27566,21.201872 296.44827,21.32321 296.5323,21.565876 L 296.5605,21.747883 L 296.5605,26.11562 C 296.56049,26.377099 296.68183,26.549849 296.92451,26.633869 C 296.98033,26.652388 297.041,26.661645 297.10652,26.66164 L 298.19813,26.66164 C 298.4596,26.661645 298.63235,26.782982 298.71638,27.025654 L 298.74415,27.207661 L 298.74415,30.483784 C 298.74414,30.745259 298.6228,30.917866 298.38014,31.001606 L 298.19813,31.029804 L 294.92243,31.029804 z M 305.44978,31.029804 L 305.43568,31.015705 C 305.1836,31.015705 305.01555,30.899067 304.93153,30.665791 C 304.91301,30.609679 304.90375,30.54901 304.90376,30.483784 L 304.90376,26.11562 C 304.90375,25.854435 305.02509,25.681828 305.26777,25.597797 C 305.32359,25.579004 305.38426,25.569605 305.44978,25.569599 L 307.63386,25.569599 C 307.89504,25.569605 308.06765,25.448409 308.15168,25.206013 C 308.17047,25.149907 308.17987,25.089238 308.17988,25.024006 L 308.17988,22.839924 C 308.17987,22.578458 308.05853,22.405708 307.81587,22.321674 L 307.63386,22.293903 L 305.44978,22.293903 C 305.1883,22.293912 305.01555,22.172574 304.93153,21.92989 C 304.91301,21.873787 304.90375,21.813118 304.90376,21.747883 C 304.90375,21.486418 305.02509,21.313668 305.26777,21.229633 C 305.32359,21.211129 305.38426,21.201872 305.44978,21.201862 L 308.72547,21.201862 C 308.98694,21.201872 309.15969,21.32321 309.24372,21.565876 L 309.27149,21.747883 L 309.27149,26.11562 C 309.27149,26.377099 309.15015,26.549849 308.90748,26.633869 L 308.72547,26.66164 L 306.54182,26.66164 C 306.28034,26.661645 306.10759,26.782982 306.02357,27.025654 L 305.9958,27.207661 L 305.9958,29.391743 C 305.99579,29.653219 306.11713,29.825968 306.35981,29.909992 C 306.41563,29.928507 306.4763,29.937764 306.54182,29.937763 L 308.72547,29.937763 C 308.98694,29.937764 309.15969,30.059102 309.24372,30.301777 C 309.26223,30.357889 309.27149,30.418558 309.27149,30.483784 C 309.27149,30.745259 309.15015,30.917866 308.90748,31.001606 L 308.72547,31.029804 L 305.44978,31.029804 z M 314.88508,31.029804 C 314.6236,31.029804 314.45085,30.908466 314.36683,30.665791 C 314.34831,30.609679 314.33906,30.54901 314.33906,30.483784 C 314.33906,30.222595 314.46039,30.049988 314.70307,29.965961 C 314.7589,29.947164 314.81957,29.937764 314.88508,29.937763 L 317.06916,29.937763 C 317.33035,29.937764 317.50295,29.816427 317.58699,29.57375 C 317.60578,29.517924 317.61518,29.457255 317.61518,29.391743 L 317.61518,27.207661 C 317.61518,26.946475 317.49384,26.773868 317.25117,26.689838 L 317.06916,26.66164 L 314.88508,26.66164 C 314.6236,26.661645 314.45085,26.540307 314.36683,26.297626 C 314.34831,26.241804 314.33906,26.181136 314.33906,26.11562 C 314.33906,25.854435 314.46039,25.681828 314.70307,25.597797 C 314.7589,25.579004 314.81957,25.569605 314.88508,25.569599 L 317.06916,25.569599 C 317.33035,25.569605 317.50295,25.448409 317.58699,25.206013 C 317.60578,25.149907 317.61518,25.089238 317.61518,25.024006 L 317.61518,22.839924 C 317.61518,22.578458 317.49384,22.405708 317.25117,22.321674 L 317.06916,22.293903 L 314.88508,22.293903 C 314.6236,22.293912 314.45085,22.172574 314.36683,21.92989 C 314.34831,21.873787 314.33906,21.813118 314.33906,21.747883 C 314.33906,21.486418 314.46039,21.313668 314.70307,21.229633 C 314.7589,21.211129 314.81957,21.201872 314.88508,21.201862 L 318.1612,21.201862 C 318.42239,21.201872 318.59499,21.32321 318.67903,21.565876 L 318.70722,21.747883 L 318.70722,25.569599 C 318.70722,25.831079 318.82841,26.003829 319.07081,26.087849 C 319.12691,26.106368 319.18758,26.115625 319.25282,26.11562 C 319.51428,26.115625 319.68703,26.236962 319.77107,26.479633 L 319.79884,26.66164 L 319.79884,30.483784 C 319.79883,30.745259 319.67749,30.917866 319.43482,31.001606 L 319.25282,31.029804 L 314.88508,31.029804 z M 328.68855,31.029804 C 328.42707,31.029804 328.25432,30.908466 328.1703,30.665791 C 328.15178,30.609679 328.14252,30.54901 328.14253,30.483784 L 328.14253,29.391743 C 328.14252,29.130555 328.02118,28.957948 327.77851,28.87392 L 327.59651,28.845722 L 324.32038,28.845722 C 324.05891,28.845724 323.8863,28.724387 323.80256,28.481709 C 323.78376,28.425884 323.77436,28.365215 323.77436,28.299702 L 323.77436,21.747883 C 323.77436,21.486418 323.8957,21.313668 324.13838,21.229633 C 324.19449,21.211129 324.25515,21.201872 324.32038,21.201862 L 325.41242,21.201862 C 325.67361,21.201872 325.84622,21.32321 325.93025,21.565876 L 325.95845,21.747883 L 325.95845,27.207661 C 325.95844,27.469139 326.07978,27.641889 326.32246,27.72591 C 326.37828,27.744427 326.43895,27.753684 326.50447,27.753681 L 327.59651,27.753681 C 327.85769,27.753684 328.0303,27.632347 328.11433,27.389668 C 328.13312,27.333844 328.14252,27.273175 328.14253,27.207661 C 328.14252,26.946475 328.26386,26.773868 328.50654,26.689838 C 328.56236,26.671044 328.62303,26.661645 328.68855,26.66164 L 329.78016,26.66164 C 330.04163,26.661645 330.21438,26.782982 330.29841,27.025654 L 330.32618,27.207661 L 330.32618,30.483784 C 330.32617,30.745259 330.20484,30.917866 329.96217,31.001606 L 329.78016,31.029804 L 328.68855,31.029804 z M 335.93977,31.029804 C 335.67829,31.029804 335.50554,30.908466 335.42152,30.665791 C 335.403,30.609679 335.39374,30.54901 335.39375,30.483784 C 335.39374,30.222595 335.51508,30.049988 335.75776,29.965961 C 335.81358,29.947164 335.87425,29.937764 335.93977,29.937763 L 339.21589,29.937763 C 339.47707,29.937764 339.64968,29.816427 339.73371,29.57375 C 339.7525,29.517924 339.7619,29.457255 339.76191,29.391743 L 339.76191,27.207661 C 339.7619,26.946475 339.64057,26.773868 339.3979,26.689838 L 339.21589,26.66164 L 335.93977,26.66164 C 335.67829,26.661645 335.50554,26.540307 335.42152,26.297626 C 335.403,26.241804 335.39374,26.181136 335.39375,26.11562 L 335.39375,21.747883 C 335.39374,21.486418 335.51508,21.313668 335.75776,21.229633 C 335.81358,21.211129 335.87425,21.201872 335.93977,21.201862 L 340.30751,21.201862 C 340.56897,21.201872 340.74172,21.32321 340.82575,21.565876 L 340.85353,21.747883 C 340.85352,22.009082 340.73218,22.181689 340.48951,22.265705 L 340.30751,22.293903 L 337.03181,22.293903 C 336.77033,22.293912 336.59758,22.41525 336.51356,22.657917 L 336.48579,22.839924 L 336.48579,25.024006 C 336.48578,25.285201 336.60712,25.457809 336.8498,25.541828 C 336.90562,25.560348 336.96629,25.569605 337.03181,25.569599 L 340.30751,25.569599 C 340.56897,25.569605 340.74172,25.690942 340.82575,25.933613 L 340.85353,26.11562 L 340.85353,30.483784 C 340.85352,30.745259 340.73218,30.917866 340.48951,31.001606 L 340.30751,31.029804 L 335.93977,31.029804 z M 345.37507,31.029804 C 345.11359,31.029804 344.94099,30.908466 344.85725,30.665791 C 344.83845,30.609679 344.82905,30.54901 344.82905,30.483784 L 344.82905,21.747883 C 344.82905,21.486418 344.95039,21.313668 345.19306,21.229633 C 345.24917,21.211129 345.30984,21.201872 345.37507,21.201862 L 348.65119,21.201862 C 348.91238,21.201872 349.08498,21.32321 349.16902,21.565876 L 349.19721,21.747883 L 349.19721,23.385944 C 349.19721,23.647142 349.07587,23.819749 348.8332,23.903767 L 348.65119,23.931965 C 348.38971,23.931972 348.21696,23.810634 348.13294,23.567951 C 348.11442,23.511847 348.10517,23.451178 348.10517,23.385944 L 348.10517,22.839924 C 348.10517,22.578458 347.98383,22.405708 347.74116,22.321674 L 347.55915,22.293903 L 346.46711,22.293903 C 346.20563,22.293912 346.03288,22.41525 345.94886,22.657917 L 345.92109,22.839924 L 345.92109,26.11562 C 345.92109,26.377099 346.04243,26.549849 346.28511,26.633869 C 346.34093,26.652388 346.4016,26.661645 346.46711,26.66164 L 350.83485,26.66164 C 351.09631,26.661645 351.26906,26.782982 351.3531,27.025654 L 351.38087,27.207661 L 351.38087,30.483784 C 351.38086,30.745259 351.25952,30.917866 351.01686,31.001606 L 350.83485,31.029804 L 345.37507,31.029804 z M 346.46711,29.937763 L 349.74324,29.937763 C 350.00442,29.937764 350.17702,29.816427 350.26106,29.57375 C 350.27985,29.517924 350.28925,29.457255 350.28926,29.391743 L 350.28926,28.299702 C 350.28925,28.038515 350.16791,27.865908 349.92524,27.781879 L 349.74324,27.753681 L 346.46711,27.753681 C 346.20563,27.753684 346.03288,27.875022 345.94886,28.117695 C 345.93034,28.173809 345.92109,28.234478 345.92109,28.299702 L 345.92109,29.391743 C 345.92109,29.653219 346.04243,29.825968 346.28511,29.909992 C 346.34093,29.928507 346.4016,29.937764 346.46711,29.937763 L 346.46711,29.937763 z M 359.17854,31.029804 C 358.91706,31.029804 358.74431,30.908466 358.66029,30.665791 C 358.64177,30.609679 358.63251,30.54901 358.63252,30.483784 L 358.63252,26.11562 C 358.63251,25.872949 358.74445,25.705041 358.96833,25.611897 L 360.48036,24.981709 C 360.70451,24.888575 360.81659,24.720667 360.8166,24.477985 L 360.8166,22.839924 C 360.81659,22.578458 360.69525,22.405708 360.45259,22.321674 L 360.27058,22.293903 L 358.0865,22.293903 C 357.82502,22.293912 357.65227,22.41525 357.56825,22.657917 L 357.54048,22.839924 L 357.54048,23.931965 C 357.54047,24.193161 357.41913,24.365769 357.17646,24.449787 L 356.99446,24.477985 C 356.73298,24.477992 356.56023,24.356654 356.47621,24.113972 C 356.45769,24.057867 356.44843,23.997198 356.44844,23.931965 L 356.44844,21.747883 C 356.44843,21.486418 356.56977,21.313668 356.81245,21.229633 C 356.86827,21.211129 356.92894,21.201872 356.99446,21.201862 L 361.36219,21.201862 C 361.62366,21.201872 361.79641,21.32321 361.88044,21.565876 L 361.90821,21.747883 L 361.90821,25.219685 C 361.9082,25.462366 361.79627,25.630416 361.5724,25.723835 L 360.06037,26.325825 C 359.83649,26.419254 359.72455,26.587304 359.72456,26.829975 L 359.72456,30.483784 C 359.72455,30.745259 359.60321,30.917866 359.36054,31.001606 L 359.17854,31.029804 z M 365.33772,31.029804 C 365.07653,31.029804 364.90392,30.908466 364.8199,30.665791 C 364.80109,30.609679 364.7917,30.54901 364.7917,30.483784 L 364.7917,26.66164 C 364.7917,26.400455 364.91303,26.227848 365.15571,26.143818 C 365.21182,26.125024 365.27249,26.115625 365.33772,26.11562 C 365.59919,26.115625 365.7718,25.994287 365.85554,25.751606 C 365.87434,25.695784 365.88374,25.635116 365.88374,25.569599 L 365.88374,21.747883 C 365.88374,21.486418 366.00507,21.313668 366.24775,21.229633 C 366.30386,21.211129 366.36453,21.201872 366.42976,21.201862 L 370.79792,21.201862 C 371.0591,21.201872 371.23171,21.32321 371.31574,21.565876 L 371.34394,21.747883 L 371.34394,25.569599 C 371.34394,25.831079 371.46513,26.003829 371.70753,26.087849 C 371.76363,26.106368 371.8243,26.115625 371.88954,26.11562 C 372.151,26.115625 372.32375,26.236962 372.40779,26.479633 L 372.43556,26.66164 L 372.43556,30.483784 C 372.43555,30.745259 372.31421,30.917866 372.07154,31.001606 L 371.88954,31.029804 L 365.33772,31.029804 z M 367.5218,29.937763 L 369.70588,29.937763 C 369.96706,29.937764 370.13967,29.816427 370.2237,29.57375 C 370.2425,29.517924 370.2519,29.457255 370.2519,29.391743 L 370.2519,27.207661 C 370.2519,26.946475 370.13056,26.773868 369.88789,26.689838 L 369.70588,26.66164 L 367.5218,26.66164 C 367.26032,26.661645 367.08757,26.782982 367.00355,27.025654 L 366.97578,27.207661 L 366.97578,29.391743 C 366.97578,29.653219 367.09711,29.825968 367.33979,29.909992 C 367.39562,29.928507 367.45628,29.937764 367.5218,29.937763 L 367.5218,29.937763 z M 367.5218,25.569599 L 369.70588,25.569599 C 369.96706,25.569605 370.13967,25.448409 370.2237,25.206013 C 370.2425,25.149907 370.2519,25.089238 370.2519,25.024006 L 370.2519,22.839924 C 370.2519,22.578458 370.13056,22.405708 369.88789,22.321674 L 369.70588,22.293903 L 367.5218,22.293903 C 367.26032,22.293912 367.08757,22.41525 367.00355,22.657917 L 366.97578,22.839924 L 366.97578,25.024006 C 366.97578,25.285201 367.09711,25.457809 367.33979,25.541828 C 367.39562,25.560348 367.45628,25.569605 367.5218,25.569599 L 367.5218,25.569599 z M 381.32527,31.029804 C 381.06378,31.029804 380.89103,30.908466 380.80702,30.665791 C 380.7885,30.609679 380.77924,30.54901 380.77925,30.483784 L 380.77925,27.207661 C 380.77924,26.946475 380.6579,26.773868 380.41523,26.689838 L 380.23323,26.66164 L 376.9571,26.66164 C 376.69562,26.661645 376.52302,26.540307 376.43928,26.297626 C 376.42048,26.241804 376.41108,26.181136 376.41108,26.11562 L 376.41108,21.747883 C 376.41108,21.486418 376.53242,21.313668 376.7751,21.229633 C 376.8312,21.211129 376.89187,21.201872 376.9571,21.201862 L 382.41688,21.201862 C 382.67835,21.201872 382.8511,21.32321 382.93513,21.565876 L 382.9629,21.747883 L 382.9629,30.483784 C 382.96289,30.745259 382.84155,30.917866 382.59889,31.001606 L 382.41688,31.029804 L 381.32527,31.029804 z M 381.32527,25.569599 C 381.58645,25.569605 381.75906,25.448409 381.84309,25.206013 C 381.86188,25.149907 381.87128,25.089238 381.87129,25.024006 L 381.87129,22.839924 C 381.87128,22.578458 381.74994,22.405708 381.50727,22.321674 L 381.32527,22.293903 L 378.04914,22.293903 C 377.78766,22.293912 377.61492,22.41525 377.53089,22.657917 L 377.50312,22.839924 L 377.50312,25.024006 C 377.50312,25.285201 377.62446,25.457809 377.86714,25.541828 C 377.92296,25.560348 377.98363,25.569605 378.04914,25.569599 L 381.32527,25.569599 z M 388.03047,31.029804 C 387.32124,31.029804 386.74716,30.745116 386.30824,30.175739 C 386.00033,29.783813 385.84638,29.340475 385.84638,28.845722 L 385.84638,23.385944 C 385.84638,22.676439 386.13107,22.102364 386.70045,21.663715 C 387.09237,21.355823 387.53571,21.201872 388.03047,21.201862 L 391.30659,21.201862 C 392.01581,21.201872 392.58974,21.48656 393.02839,22.055927 C 393.33628,22.447863 393.49024,22.891202 393.49024,23.385944 L 393.49024,28.845722 C 393.49024,29.555237 393.20569,30.129313 392.63661,30.567951 C 392.24439,30.875853 391.80105,31.029804 391.30659,31.029804 L 388.03047,31.029804 z M 388.03047,29.937763 L 391.30659,29.937763 C 391.73582,29.937764 392.05312,29.751058 392.25849,29.377644 C 392.35191,29.20988 392.39862,29.032573 392.39863,28.845722 L 392.39863,23.385944 C 392.39862,22.956428 392.21192,22.638984 391.83851,22.433613 C 391.67045,22.340482 391.49315,22.293912 391.30659,22.293903 L 388.03047,22.293903 C 387.60122,22.293912 387.28392,22.480476 387.07856,22.853596 C 386.98514,23.021654 386.93842,23.199103 386.93843,23.385944 L 386.93843,28.845722 C 386.93842,29.275249 387.12513,29.59255 387.49855,29.797626 C 387.66659,29.891052 387.8439,29.937764 388.03047,29.937763 L 388.03047,29.937763 z M 396.91975,31.029804 C 396.65856,31.029804 396.48595,30.908466 396.40193,30.665791 C 396.38313,30.609679 396.37373,30.54901 396.37373,30.483784 L 396.37373,27.207661 C 396.37373,26.946475 396.49506,26.773868 396.73774,26.689838 C 396.79385,26.671044 396.85452,26.661645 396.91975,26.66164 L 398.01179,26.66164 C 398.27298,26.661645 398.44558,26.782982 398.52961,27.025654 L 398.55781,27.207661 L 398.55781,30.483784 C 398.55781,30.745259 398.43647,30.917866 398.1938,31.001606 C 398.13768,31.020405 398.07701,31.029804 398.01179,31.029804 L 396.91975,31.029804 z M 400.19587,28.565876 C 399.93439,28.565878 399.76164,28.444541 399.67762,28.201862 C 399.6591,28.145754 399.64985,28.085085 399.64985,28.019855 L 399.64985,24.197712 C 399.64985,23.936529 399.77118,23.763922 400.01386,23.67989 C 400.06969,23.661098 400.13036,23.651699 400.19587,23.651691 C 400.45706,23.651699 400.62966,23.773037 400.71369,24.015705 L 400.74189,24.197712 L 400.74189,28.019855 C 400.74189,28.281048 400.62055,28.453655 400.37788,28.537678 L 400.19587,28.565876 z M 402.37995,25.569599 C 402.11847,25.569605 401.94572,25.448409 401.8617,25.206013 C 401.84318,25.149907 401.83393,25.089238 401.83393,25.024006 L 401.83393,21.747883 C 401.83393,21.486418 401.95526,21.313668 402.19795,21.229633 C 402.25377,21.211129 402.31444,21.201872 402.37995,21.201862 L 403.47157,21.201862 C 403.73303,21.201872 403.90578,21.32321 403.98982,21.565876 L 404.01759,21.747883 L 404.01759,25.024006 C 404.01758,25.285201 403.89624,25.457809 403.65357,25.541828 L 403.47157,25.569599 L 402.37995,25.569599 z M 417.97444,28.299702 C 417.71324,28.299704 417.54064,28.178367 417.45661,27.935688 C 417.43781,27.879864 417.42841,27.819195 417.42842,27.753681 L 417.42842,24.477985 C 417.42841,24.216518 417.54975,24.043768 417.79243,23.959736 C 417.84854,23.941229 417.90921,23.931972 417.97444,23.931965 L 419.06648,23.931965 C 419.32766,23.931972 419.50027,24.05331 419.5843,24.295979 L 419.6125,24.477985 L 419.6125,27.753681 C 419.61249,28.015159 419.49116,28.187908 419.24848,28.271931 C 419.19237,28.290447 419.1317,28.299704 419.06648,28.299702 L 417.97444,28.299702 z M 421.25056,28.299702 C 420.98908,28.299704 420.81633,28.178367 420.73231,27.935688 C 420.71379,27.879864 420.70453,27.819195 420.70454,27.753681 L 420.70454,24.477985 C 420.70453,24.216518 420.82587,24.043768 421.06855,23.959736 C 421.12437,23.941229 421.18504,23.931972 421.25056,23.931965 L 422.3426,23.931965 C 422.60378,23.931972 422.77639,24.05331 422.86042,24.295979 L 422.88862,24.477985 L 422.88862,27.753681 C 422.88861,28.015159 422.76728,28.187908 422.52461,28.271931 L 422.3426,28.299702 L 421.25056,28.299702 z M 424.52626,28.299702 C 424.26506,28.299704 424.09245,28.178367 424.00843,27.935688 C 423.98991,27.879864 423.98065,27.819195 423.98066,27.753681 L 423.98066,24.477985 C 423.98065,24.216518 424.10185,24.043768 424.34425,23.959736 C 424.40035,23.941229 424.46102,23.931972 424.52626,23.931965 C 424.78772,23.931972 424.96047,24.05331 425.0445,24.295979 L 425.07228,24.477985 L 425.07228,27.753681 C 425.07227,28.015159 424.95093,28.187908 424.70826,28.271931 L 424.52626,28.299702 z M 431.7779,31.029804 C 431.51642,31.029804 431.34367,30.908466 431.25965,30.665791 C 431.24113,30.609679 431.23188,30.54901 431.23188,30.483784 L 431.23188,27.207661 C 431.23188,26.946475 431.35322,26.773868 431.5959,26.689838 C 431.65172,26.671044 431.71239,26.661645 431.7779,26.66164 C 432.03909,26.661645 432.21169,26.540307 432.29573,26.297626 C 432.31452,26.241804 432.32392,26.181136 432.32392,26.11562 L 432.32392,23.385944 C 432.32392,23.124478 432.20258,22.951728 431.95991,22.867695 L 431.7779,22.839924 C 431.51642,22.839932 431.34367,22.718594 431.25965,22.47591 C 431.24113,22.419807 431.23188,22.359138 431.23188,22.293903 L 431.23188,21.747883 C 431.23188,21.486418 431.35322,21.313668 431.5959,21.229633 C 431.65172,21.211129 431.71239,21.201872 431.7779,21.201862 L 432.86994,21.201862 C 433.13113,21.201872 433.30373,21.32321 433.38777,21.565876 L 433.41596,21.747883 L 433.41596,26.11562 C 433.41596,26.377099 433.5373,26.549849 433.77998,26.633869 C 433.8358,26.652388 433.89647,26.661645 433.96199,26.66164 L 435.0536,26.66164 C 435.31506,26.661645 435.48781,26.782982 435.57185,27.025654 L 435.59962,27.207661 L 435.59962,30.483784 C 435.59961,30.745259 435.47827,30.917866 435.23561,31.001606 L 435.0536,31.029804 L 431.7779,31.029804 z M 442.30525,31.029804 L 442.29115,31.015705 C 442.03907,31.015705 441.87102,30.899067 441.787,30.665791 C 441.76848,30.609679 441.75922,30.54901 441.75923,30.483784 L 441.75923,26.11562 C 441.75922,25.854435 441.88056,25.681828 442.12324,25.597797 C 442.17906,25.579004 442.23973,25.569605 442.30525,25.569599 L 444.48933,25.569599 C 444.75051,25.569605 444.92312,25.448409 445.00715,25.206013 C 445.02594,25.149907 445.03534,25.089238 445.03535,25.024006 L 445.03535,22.839924 C 445.03534,22.578458 444.914,22.405708 444.67134,22.321674 L 444.48933,22.293903 L 442.30525,22.293903 C 442.04377,22.293912 441.87102,22.172574 441.787,21.92989 C 441.76848,21.873787 441.75922,21.813118 441.75923,21.747883 C 441.75922,21.486418 441.88056,21.313668 442.12324,21.229633 C 442.17906,21.211129 442.23973,21.201872 442.30525,21.201862 L 445.58094,21.201862 C 445.84241,21.201872 446.01516,21.32321 446.09919,21.565876 L 446.12696,21.747883 L 446.12696,26.11562 C 446.12695,26.377099 446.00562,26.549849 445.76295,26.633869 L 445.58094,26.66164 L 443.39729,26.66164 C 443.13581,26.661645 442.96306,26.782982 442.87904,27.025654 L 442.85127,27.207661 L 442.85127,29.391743 C 442.85126,29.653219 442.9726,29.825968 443.21528,29.909992 C 443.2711,29.928507 443.33177,29.937764 443.39729,29.937763 L 445.58094,29.937763 C 445.84241,29.937764 446.01516,30.059102 446.09919,30.301777 C 446.1177,30.357889 446.12695,30.418558 446.12696,30.483784 C 446.12695,30.745259 446.00562,30.917866 445.76295,31.001606 L 445.58094,31.029804 L 442.30525,31.029804 z M 451.74055,31.029804 C 451.47907,31.029804 451.30632,30.908466 451.2223,30.665791 C 451.20378,30.609679 451.19453,30.54901 451.19453,30.483784 C 451.19453,30.222595 451.31586,30.049988 451.55854,29.965961 C 451.61437,29.947164 451.67503,29.937764 451.74055,29.937763 L 453.92463,29.937763 C 454.18581,29.937764 454.35842,29.816427 454.44245,29.57375 C 454.46125,29.517924 454.47065,29.457255 454.47065,29.391743 L 454.47065,27.207661 C 454.47065,26.946475 454.34931,26.773868 454.10664,26.689838 L 453.92463,26.66164 L 451.74055,26.66164 C 451.47907,26.661645 451.30632,26.540307 451.2223,26.297626 C 451.20378,26.241804 451.19453,26.181136 451.19453,26.11562 C 451.19453,25.854435 451.31586,25.681828 451.55854,25.597797 C 451.61437,25.579004 451.67503,25.569605 451.74055,25.569599 L 453.92463,25.569599 C 454.18581,25.569605 454.35842,25.448409 454.44245,25.206013 C 454.46125,25.149907 454.47065,25.089238 454.47065,25.024006 L 454.47065,22.839924 C 454.47065,22.578458 454.34931,22.405708 454.10664,22.321674 L 453.92463,22.293903 L 451.74055,22.293903 C 451.47907,22.293912 451.30632,22.172574 451.2223,21.92989 C 451.20378,21.873787 451.19453,21.813118 451.19453,21.747883 C 451.19453,21.486418 451.31586,21.313668 451.55854,21.229633 C 451.61437,21.211129 451.67503,21.201872 451.74055,21.201862 L 455.01667,21.201862 C 455.27785,21.201872 455.45046,21.32321 455.53449,21.565876 L 455.56269,21.747883 L 455.56269,25.569599 C 455.56269,25.831079 455.68388,26.003829 455.92628,26.087849 C 455.98238,26.106368 456.04305,26.115625 456.10829,26.11562 C 456.36975,26.115625 456.5425,26.236962 456.62654,26.479633 L 456.65431,26.66164 L 456.65431,30.483784 C 456.6543,30.745259 456.53296,30.917866 456.29029,31.001606 L 456.10829,31.029804 L 451.74055,31.029804 z M 465.54402,31.029804 C 465.28253,31.029804 465.10978,30.908466 465.02577,30.665791 C 465.00725,30.609679 464.99799,30.54901 464.998,30.483784 L 464.998,29.391743 C 464.99799,29.130555 464.87665,28.957948 464.63398,28.87392 L 464.45198,28.845722 L 461.17585,28.845722 C 460.91437,28.845724 460.74177,28.724387 460.65803,28.481709 C 460.63923,28.425884 460.62983,28.365215 460.62983,28.299702 L 460.62983,21.747883 C 460.62983,21.486418 460.75117,21.313668 460.99385,21.229633 C 461.04995,21.211129 461.11062,21.201872 461.17585,21.201862 L 462.26789,21.201862 C 462.52908,21.201872 462.70169,21.32321 462.78572,21.565876 L 462.81391,21.747883 L 462.81391,27.207661 C 462.81391,27.469139 462.93525,27.641889 463.17793,27.72591 C 463.23375,27.744427 463.29442,27.753684 463.35993,27.753681 L 464.45198,27.753681 C 464.71316,27.753684 464.88577,27.632347 464.9698,27.389668 C 464.98859,27.333844 464.99799,27.273175 464.998,27.207661 C 464.99799,26.946475 465.11933,26.773868 465.36201,26.689838 C 465.41783,26.671044 465.4785,26.661645 465.54402,26.66164 L 466.63563,26.66164 C 466.8971,26.661645 467.06985,26.782982 467.15388,27.025654 L 467.18165,27.207661 L 467.18165,30.483784 C 467.18164,30.745259 467.0603,30.917866 466.81764,31.001606 L 466.63563,31.029804 L 465.54402,31.029804 z M 472.79524,31.029804 C 472.53376,31.029804 472.36101,30.908466 472.27699,30.665791 C 472.25847,30.609679 472.24921,30.54901 472.24922,30.483784 C 472.24921,30.222595 472.37055,30.049988 472.61323,29.965961 C 472.66905,29.947164 472.72972,29.937764 472.79524,29.937763 L 476.07136,29.937763 C 476.33254,29.937764 476.50515,29.816427 476.58918,29.57375 C 476.60797,29.517924 476.61737,29.457255 476.61738,29.391743 L 476.61738,27.207661 C 476.61737,26.946475 476.49603,26.773868 476.25337,26.689838 L 476.07136,26.66164 L 472.79524,26.66164 C 472.53376,26.661645 472.36101,26.540307 472.27699,26.297626 C 472.25847,26.241804 472.24921,26.181136 472.24922,26.11562 L 472.24922,21.747883 C 472.24921,21.486418 472.37055,21.313668 472.61323,21.229633 C 472.66905,21.211129 472.72972,21.201872 472.79524,21.201862 L 477.16297,21.201862 C 477.42444,21.201872 477.59719,21.32321 477.68122,21.565876 L 477.70899,21.747883 C 477.70899,22.009082 477.58765,22.181689 477.34498,22.265705 L 477.16297,22.293903 L 473.88728,22.293903 C 473.6258,22.293912 473.45305,22.41525 473.36903,22.657917 L 473.34126,22.839924 L 473.34126,25.024006 C 473.34125,25.285201 473.46259,25.457809 473.70527,25.541828 C 473.76109,25.560348 473.82176,25.569605 473.88728,25.569599 L 477.16297,25.569599 C 477.42444,25.569605 477.59719,25.690942 477.68122,25.933613 L 477.70899,26.11562 L 477.70899,30.483784 C 477.70899,30.745259 477.58765,30.917866 477.34498,31.001606 L 477.16297,31.029804 L 472.79524,31.029804 z M 482.23054,31.029804 C 481.96906,31.029804 481.79646,30.908466 481.71272,30.665791 C 481.69392,30.609679 481.68452,30.54901 481.68452,30.483784 L 481.68452,21.747883 C 481.68452,21.486418 481.80585,21.313668 482.04853,21.229633 C 482.10464,21.211129 482.16531,21.201872 482.23054,21.201862 L 485.50666,21.201862 C 485.76785,21.201872 485.94045,21.32321 486.02449,21.565876 L 486.05268,21.747883 L 486.05268,23.385944 C 486.05268,23.647142 485.93134,23.819749 485.68867,23.903767 L 485.50666,23.931965 C 485.24518,23.931972 485.07243,23.810634 484.98841,23.567951 C 484.96989,23.511847 484.96064,23.451178 484.96064,23.385944 L 484.96064,22.839924 C 484.96064,22.578458 484.8393,22.405708 484.59663,22.321674 L 484.41462,22.293903 L 483.32258,22.293903 C 483.0611,22.293912 482.88835,22.41525 482.80433,22.657917 L 482.77656,22.839924 L 482.77656,26.11562 C 482.77656,26.377099 482.89789,26.549849 483.14057,26.633869 C 483.1964,26.652388 483.25707,26.661645 483.32258,26.66164 L 487.69032,26.66164 C 487.95178,26.661645 488.12453,26.782982 488.20857,27.025654 L 488.23634,27.207661 L 488.23634,30.483784 C 488.23633,30.745259 488.11499,30.917866 487.87232,31.001606 L 487.69032,31.029804 L 482.23054,31.029804 z M 483.32258,29.937763 L 486.5987,29.937763 C 486.85989,29.937764 487.03249,29.816427 487.11653,29.57375 C 487.13532,29.517924 487.14472,29.457255 487.14472,29.391743 L 487.14472,28.299702 C 487.14472,28.038515 487.02338,27.865908 486.78071,27.781879 L 486.5987,27.753681 L 483.32258,27.753681 C 483.0611,27.753684 482.88835,27.875022 482.80433,28.117695 C 482.78581,28.173809 482.77656,28.234478 482.77656,28.299702 L 482.77656,29.391743 C 482.77656,29.653219 482.89789,29.825968 483.14057,29.909992 C 483.1964,29.928507 483.25707,29.937764 483.32258,29.937763 L 483.32258,29.937763 z M 496.03401,31.029804 C 495.77253,31.029804 495.59978,30.908466 495.51576,30.665791 C 495.49724,30.609679 495.48798,30.54901 495.48799,30.483784 L 495.48799,26.11562 C 495.48798,25.872949 495.59992,25.705041 495.8238,25.611897 L 497.33583,24.981709 C 497.55998,24.888575 497.67206,24.720667 497.67207,24.477985 L 497.67207,22.839924 C 497.67206,22.578458 497.55072,22.405708 497.30805,22.321674 L 497.12605,22.293903 L 494.94197,22.293903 C 494.68049,22.293912 494.50774,22.41525 494.42372,22.657917 L 494.39595,22.839924 L 494.39595,23.931965 C 494.39594,24.193161 494.2746,24.365769 494.03193,24.449787 L 493.84992,24.477985 C 493.58845,24.477992 493.4157,24.356654 493.33168,24.113972 C 493.31316,24.057867 493.3039,23.997198 493.3039,23.931965 L 493.3039,21.747883 C 493.3039,21.486418 493.42524,21.313668 493.66792,21.229633 C 493.72374,21.211129 493.78441,21.201872 493.84992,21.201862 L 498.21766,21.201862 C 498.47913,21.201872 498.65188,21.32321 498.73591,21.565876 L 498.76368,21.747883 L 498.76368,25.219685 C 498.76367,25.462366 498.65173,25.630416 498.42787,25.723835 L 496.91584,26.325825 C 496.69196,26.419254 496.58002,26.587304 496.58003,26.829975 L 496.58003,30.483784 C 496.58002,30.745259 496.45868,30.917866 496.21601,31.001606 L 496.03401,31.029804 z M 502.19319,31.029804 C 501.93199,31.029804 501.75939,30.908466 501.67536,30.665791 C 501.65656,30.609679 501.64716,30.54901 501.64717,30.483784 L 501.64717,26.66164 C 501.64716,26.400455 501.7685,26.227848 502.01118,26.143818 C 502.06729,26.125024 502.12796,26.115625 502.19319,26.11562 C 502.45466,26.115625 502.62727,25.994287 502.71101,25.751606 C 502.7298,25.695784 502.7392,25.635116 502.73921,25.569599 L 502.73921,21.747883 C 502.7392,21.486418 502.86054,21.313668 503.10322,21.229633 C 503.15933,21.211129 503.22,21.201872 503.28523,21.201862 L 507.65339,21.201862 C 507.91457,21.201872 508.08718,21.32321 508.17121,21.565876 L 508.19941,21.747883 L 508.19941,25.569599 C 508.1994,25.831079 508.3206,26.003829 508.563,26.087849 C 508.6191,26.106368 508.67977,26.115625 508.74501,26.11562 C 509.00647,26.115625 509.17922,26.236962 509.26325,26.479633 L 509.29103,26.66164 L 509.29103,30.483784 C 509.29102,30.745259 509.16968,30.917866 508.92701,31.001606 L 508.74501,31.029804 L 502.19319,31.029804 z M 504.37727,29.937763 L 506.56135,29.937763 C 506.82253,29.937764 506.99514,29.816427 507.07917,29.57375 C 507.09796,29.517924 507.10736,29.457255 507.10737,29.391743 L 507.10737,27.207661 C 507.10736,26.946475 506.98603,26.773868 506.74336,26.689838 L 506.56135,26.66164 L 504.37727,26.66164 C 504.11579,26.661645 503.94304,26.782982 503.85902,27.025654 L 503.83125,27.207661 L 503.83125,29.391743 C 503.83124,29.653219 503.95258,29.825968 504.19526,29.909992 C 504.25108,29.928507 504.31175,29.937764 504.37727,29.937763 L 504.37727,29.937763 z M 504.37727,25.569599 L 506.56135,25.569599 C 506.82253,25.569605 506.99514,25.448409 507.07917,25.206013 C 507.09796,25.149907 507.10736,25.089238 507.10737,25.024006 L 507.10737,22.839924 C 507.10736,22.578458 506.98603,22.405708 506.74336,22.321674 L 506.56135,22.293903 L 504.37727,22.293903 C 504.11579,22.293912 503.94304,22.41525 503.85902,22.657917 L 503.83125,22.839924 L 503.83125,25.024006 C 503.83124,25.285201 503.95258,25.457809 504.19526,25.541828 C 504.25108,25.560348 504.31175,25.569605 504.37727,25.569599 L 504.37727,25.569599 z M 518.18074,31.029804 C 517.91925,31.029804 517.7465,30.908466 517.66249,30.665791 C 517.64396,30.609679 517.63471,30.54901 517.63471,30.483784 L 517.63471,27.207661 C 517.63471,26.946475 517.51337,26.773868 517.2707,26.689838 L 517.08869,26.66164 L 513.81257,26.66164 C 513.55109,26.661645 513.37849,26.540307 513.29475,26.297626 C 513.27595,26.241804 513.26655,26.181136 513.26655,26.11562 L 513.26655,21.747883 C 513.26655,21.486418 513.38789,21.313668 513.63056,21.229633 C 513.68667,21.211129 513.74734,21.201872 513.81257,21.201862 L 519.27235,21.201862 C 519.53381,21.201872 519.70656,21.32321 519.7906,21.565876 L 519.81837,21.747883 L 519.81837,30.483784 C 519.81836,30.745259 519.69702,30.917866 519.45436,31.001606 L 519.27235,31.029804 L 518.18074,31.029804 z M 518.18074,25.569599 C 518.44192,25.569605 518.61452,25.448409 518.69856,25.206013 C 518.71735,25.149907 518.72675,25.089238 518.72676,25.024006 L 518.72676,22.839924 C 518.72675,22.578458 518.60541,22.405708 518.36274,22.321674 L 518.18074,22.293903 L 514.90461,22.293903 C 514.64313,22.293912 514.47038,22.41525 514.38636,22.657917 L 514.35859,22.839924 L 514.35859,25.024006 C 514.35859,25.285201 514.47993,25.457809 514.72261,25.541828 C 514.77843,25.560348 514.8391,25.569605 514.90461,25.569599 L 518.18074,25.569599 z M 524.88594,31.029804 C 524.1767,31.029804 523.60263,30.745116 523.16371,30.175739 C 522.8558,29.783813 522.70185,29.340475 522.70185,28.845722 L 522.70185,23.385944 C 522.70185,22.676439 522.98654,22.102364 523.55592,21.663715 C 523.94784,21.355823 524.39118,21.201872 524.88594,21.201862 L 528.16206,21.201862 C 528.87128,21.201872 529.44521,21.48656 529.88386,22.055927 C 530.19175,22.447863 530.3457,22.891202 530.34571,23.385944 L 530.34571,28.845722 C 530.3457,29.555237 530.06116,30.129313 529.49208,30.567951 C 529.09986,30.875853 528.65652,31.029804 528.16206,31.029804 L 524.88594,31.029804 z M 524.88594,29.937763 L 528.16206,29.937763 C 528.59129,29.937764 528.90859,29.751058 529.11396,29.377644 C 529.20738,29.20988 529.25409,29.032573 529.2541,28.845722 L 529.2541,23.385944 C 529.25409,22.956428 529.06739,22.638984 528.69398,22.433613 C 528.52592,22.340482 528.34862,22.293912 528.16206,22.293903 L 524.88594,22.293903 C 524.45669,22.293912 524.13939,22.480476 523.93403,22.853596 C 523.8406,23.021654 523.79389,23.199103 523.79389,23.385944 L 523.79389,28.845722 C 523.79389,29.275249 523.9806,29.59255 524.35401,29.797626 C 524.52206,29.891052 524.69937,29.937764 524.88594,29.937763 L 524.88594,29.937763 z M 533.77522,28.299702 C 533.51403,28.299704 533.34142,28.178367 533.2574,27.935688 C 533.23859,27.879864 533.2292,27.819195 533.2292,27.753681 L 533.2292,24.477985 C 533.2292,24.216518 533.35053,24.043768 533.59321,23.959736 C 533.64932,23.941229 533.70999,23.931972 533.77522,23.931965 L 534.86726,23.931965 C 535.12844,23.931972 535.30105,24.05331 535.38508,24.295979 L 535.41328,24.477985 L 535.41328,27.753681 C 535.41328,28.015159 535.29194,28.187908 535.04927,28.271931 C 534.99315,28.290447 534.93248,28.299704 534.86726,28.299702 L 533.77522,28.299702 z M 537.05134,28.299702 C 536.78986,28.299704 536.61711,28.178367 536.53309,27.935688 C 536.51457,27.879864 536.50532,27.819195 536.50532,27.753681 L 536.50532,24.477985 C 536.50532,24.216518 536.62665,24.043768 536.86933,23.959736 C 536.92516,23.941229 536.98582,23.931972 537.05134,23.931965 L 538.14338,23.931965 C 538.40456,23.931972 538.57717,24.05331 538.6612,24.295979 L 538.6894,24.477985 L 538.6894,27.753681 C 538.6894,28.015159 538.56806,28.187908 538.32539,28.271931 L 538.14338,28.299702 L 537.05134,28.299702 z M 540.32704,28.299702 C 540.06584,28.299704 539.89323,28.178367 539.80921,27.935688 C 539.79069,27.879864 539.78144,27.819195 539.78144,27.753681 L 539.78144,24.477985 C 539.78144,24.216518 539.90263,24.043768 540.14503,23.959736 C 540.20113,23.941229 540.2618,23.931972 540.32704,23.931965 C 540.5885,23.931972 540.76125,24.05331 540.84529,24.295979 L 540.87306,24.477985 L 540.87306,27.753681 C 540.87305,28.015159 540.75171,28.187908 540.50904,28.271931 L 540.32704,28.299702 z " id="text2161"/>
</svg>